<?xml version="1.0" encoding="UTF-8" standalone="no"?>
<svg
   xmlns:dc="http://purl.org/dc/elements/1.1/"
   xmlns:cc="http://creativecommons.org/ns#"
   xmlns:rdf="http://www.w3.org/1999/02/22-rdf-syntax-ns#"
   xmlns:svg="http://www.w3.org/2000/svg"
   xmlns="http://www.w3.org/2000/svg"
   xmlns:sodipodi="http://sodipodi.sourceforge.net/DTD/sodipodi-0.dtd"
   xmlns:inkscape="http://www.inkscape.org/namespaces/inkscape"
   width="159.05061pt"
   height="317.93359pt"
   viewBox="0 0 159.05061 317.93359"
   version="1.1"
   id="svg613"
   sodipodi:docname="transformer_encoder.svg"
   inkscape:version="0.92.5 (2060ec1f9f, 2020-04-08)">
  <metadata
     id="metadata617">
    <rdf:RDF>
      <cc:Work
         rdf:about="">
        <dc:format>image/svg+xml</dc:format>
        <dc:type
           rdf:resource="http://purl.org/dc/dcmitype/StillImage" />
        <dc:title></dc:title>
      </cc:Work>
    </rdf:RDF>
  </metadata>
  <sodipodi:namedview
     pagecolor="#ffffff"
     bordercolor="#666666"
     borderopacity="1"
     objecttolerance="10"
     gridtolerance="10"
     guidetolerance="10"
     inkscape:pageopacity="0"
     inkscape:pageshadow="2"
     inkscape:window-width="1848"
     inkscape:window-height="1016"
     id="namedview615"
     showgrid="false"
     fit-margin-top="0"
     fit-margin-left="0"
     fit-margin-right="0"
     fit-margin-bottom="0"
     inkscape:zoom="1.2924326"
     inkscape:cx="237.16667"
     inkscape:cy="292.18229"
     inkscape:window-x="72"
     inkscape:window-y="27"
     inkscape:window-maximized="1"
     inkscape:current-layer="surface1" />
  <defs
     id="defs8">
    <clipPath
       id="clip1">
      <path
         d="M 326.25,196 H 332 v 5.71875 h -5.75 z m 0,0"
         id="path2"
         inkscape:connector-curvature="0" />
    </clipPath>
    <clipPath
       id="clip2">
      <path
         d="m 21.5,254.03125 h 5.9375 v 5.9375 H 21.5 Z m 0,0"
         id="path5"
         inkscape:connector-curvature="0" />
    </clipPath>
  </defs>
  <g
     id="surface1"
     transform="translate(-0.125,-130.70313)">
    <path
       style="fill:none;stroke:#000000;stroke-width:1;stroke-linecap:round;stroke-linejoin:round;stroke-miterlimit:10;stroke-dasharray:4, 4;stroke-opacity:1"
       d="m 488.2,316.2 h 80.61562 c 4.41875,0 8,3.58125 8,8 V 453 c 0,4.41875 -3.58125,8 -8,8 H 488.2 c -4.41875,0 -8,-3.58125 -8,-8 V 324.2 c 0,-4.41875 3.58125,-8 8,-8 z m 0,0"
       transform="matrix(1.25,0,0,1.25,-562.5,-228.75)"
       id="path12"
       inkscape:connector-curvature="0" />
    <path
       style="fill:#66bdff;fill-opacity:1;fill-rule:nonzero;stroke:#000000;stroke-width:1;stroke-linecap:round;stroke-linejoin:round;stroke-miterlimit:10;stroke-opacity:1"
       d="m 501.2,416 h 62.2 v 26.2 h -62.2 z m 0,0"
       transform="matrix(1.25,0,0,1.25,-562.5,-228.75)"
       id="path14"
       inkscape:connector-curvature="0" />
    <path
       style="fill:#000000;fill-opacity:1;fill-rule:nonzero;stroke:none"
       d="m 77.453125,304.75781 v -8.04687 h 1.601563 l 1.894531,5.70312 c 0.179687,0.52344 0.3125,0.91797 0.390625,1.19141 0.08594,-0.29688 0.234375,-0.72656 0.429687,-1.28906 l 1.933594,-5.60547 h 1.425781 v 8.04687 h -1.015625 v -6.73828 l -2.34375,6.73828 H 80.8125 l -2.34375,-6.85547 v 6.85547 z m 0,0"
       id="path16"
       inkscape:connector-curvature="0" />
    <path
       style="fill:#000000;fill-opacity:1;fill-rule:nonzero;stroke:none"
       d="m 90.554688,304.75781 v -0.85937 c -0.460938,0.66406 -1.074219,0.99609 -1.855469,0.99609 -0.34375,0 -0.660157,-0.0703 -0.957031,-0.19531 -0.304688,-0.14063 -0.527344,-0.3125 -0.683594,-0.50781 -0.148438,-0.19532 -0.246094,-0.4336 -0.292969,-0.72266 -0.03906,-0.19531 -0.05859,-0.50781 -0.05859,-0.9375 v -3.61328 h 0.976563 v 3.24219 c 0,0.52343 0.02344,0.86718 0.07813,1.03515 0.04687,0.26172 0.175781,0.46875 0.371093,0.625 0.203126,0.14453 0.457032,0.21485 0.761719,0.21485 0.296875,0 0.574219,-0.0703 0.839844,-0.21485 0.257813,-0.15625 0.4375,-0.36328 0.546875,-0.625 0.101562,-0.25781 0.15625,-0.64453 0.15625,-1.15234 v -3.125 h 0.996094 v 5.83984 z m 0,0"
       id="path18"
       inkscape:connector-curvature="0" />
    <path
       style="fill:#000000;fill-opacity:1;fill-rule:nonzero;stroke:none"
       d="m 92.964844,304.75781 v -8.04687 h 0.976562 v 8.04687 z m 0,0"
       id="path20"
       inkscape:connector-curvature="0" />
    <path
       style="fill:#000000;fill-opacity:1;fill-rule:nonzero;stroke:none"
       d="m 97.652344,303.87891 0.136718,0.85937 c -0.289062,0.0625 -0.539062,0.0977 -0.742187,0.0977 -0.367187,0 -0.644531,-0.0586 -0.839844,-0.17578 -0.195312,-0.11719 -0.34375,-0.26563 -0.429687,-0.44922 -0.07813,-0.17969 -0.117188,-0.56641 -0.117188,-1.15235 v -3.35937 H 94.9375 v -0.78125 h 0.722656 v -1.44531 l 0.996094,-0.58594 v 2.03125 h 0.996094 v 0.78125 H 96.65625 v 3.39844 c 0,0.28906 0.0078,0.46875 0.03906,0.54687 0.03906,0.0781 0.09766,0.14453 0.175782,0.19531 0.07813,0.0547 0.183594,0.0781 0.332031,0.0781 0.117187,0 0.261719,-0.0117 0.449219,-0.0391 z m 0,0"
       id="path22"
       inkscape:connector-curvature="0" />
    <path
       style="fill:#000000;fill-opacity:1;fill-rule:nonzero;stroke:none"
       d="m 98.609375,297.84375 v -1.13281 h 0.996094 v 1.13281 z m 0,6.91406 v -5.83984 h 0.996094 v 5.83984 z m 0,0"
       id="path24"
       inkscape:connector-curvature="0" />
    <path
       style="fill:#000000;fill-opacity:1;fill-rule:nonzero;stroke:none"
       d="m 100.71875,302.33594 v -0.9961 h 3.04688 v 0.9961 z m 0,0"
       id="path26"
       inkscape:connector-curvature="0" />
    <path
       style="fill:#000000;fill-opacity:1;fill-rule:nonzero;stroke:none"
       d="m 104.85547,304.75781 v -8.04687 h 0.99609 v 2.89062 c 0.45313,-0.53125 1.03516,-0.80078 1.73828,-0.80078 0.42969,0 0.80079,0.0859 1.11329,0.25391 0.32031,0.17187 0.55078,0.40625 0.68359,0.70312 0.14062,0.30078 0.21484,0.73828 0.21484,1.3086 v 3.6914 H 108.625 v -3.6914 c 0,-0.49219 -0.11328,-0.85157 -0.33203,-1.07422 -0.21094,-0.23438 -0.50781,-0.35157 -0.89844,-0.35157 -0.30469,0 -0.58203,0.0781 -0.83984,0.23438 -0.26563,0.14453 -0.44531,0.34766 -0.54688,0.60547 -0.10937,0.26172 -0.15625,0.625 -0.15625,1.09375 v 3.18359 z m 0,0"
       id="path28"
       inkscape:connector-curvature="0" />
    <path
       style="fill:#000000;fill-opacity:1;fill-rule:nonzero;stroke:none"
       d="M 115.09375,302.88281 116.12891,303 c -0.16797,0.60156 -0.47657,1.07031 -0.91797,1.40625 -0.42969,0.32812 -0.98438,0.48828 -1.66016,0.48828 -0.84765,0 -1.52344,-0.25781 -2.03125,-0.78125 -0.49609,-0.53125 -0.74219,-1.27344 -0.74219,-2.22656 0,-0.97656 0.25391,-1.73047 0.76172,-2.26563 0.50782,-0.54687 1.16407,-0.82031 1.97266,-0.82031 0.78125,0 1.41406,0.26953 1.89453,0.80078 0.49609,0.52344 0.74219,1.26563 0.74219,2.22656 0,0.0664 0,0.15625 0,0.27344 h -4.35547 c 0.0391,0.64063 0.22266,1.12891 0.54687,1.46485 0.32422,0.33984 0.73438,0.50781 1.23047,0.50781 0.36328,0 0.67188,-0.0899 0.91797,-0.27344 0.26172,-0.19531 0.46094,-0.5 0.60547,-0.91797 z m -3.24219,-1.60156 h 3.26172 c -0.0391,-0.49219 -0.16406,-0.86328 -0.37109,-1.11328 -0.3125,-0.375 -0.72266,-0.56641 -1.23047,-0.56641 -0.45703,0 -0.83984,0.15625 -1.15234,0.46875 -0.30079,0.30078 -0.46875,0.70313 -0.50782,1.21094 z m 0,0"
       id="path30"
       inkscape:connector-curvature="0" />
    <path
       style="fill:#000000;fill-opacity:1;fill-rule:nonzero;stroke:none"
       d="m 121.17578,304.03516 c -0.36328,0.3125 -0.71484,0.53515 -1.05469,0.66406 -0.33984,0.125 -0.70312,0.19531 -1.09375,0.19531 -0.63671,0 -1.13281,-0.15625 -1.48437,-0.46875 -0.33984,-0.3125 -0.50781,-0.71484 -0.50781,-1.21094 0,-0.28515 0.0664,-0.54687 0.19531,-0.78125 0.12891,-0.23437 0.30078,-0.42187 0.50781,-0.5664 0.20703,-0.14063 0.44141,-0.25391 0.70313,-0.33203 0.19531,-0.0391 0.48828,-0.082 0.8789,-0.13672 0.8086,-0.0899 1.39844,-0.20703 1.77735,-0.35157 0,-0.1289 0,-0.21484 0,-0.2539 0,-0.40235 -0.0898,-0.6836 -0.27344,-0.83985 -0.26172,-0.23437 -0.63672,-0.35156 -1.13281,-0.35156 -0.46875,0 -0.8125,0.0859 -1.03516,0.25391 -0.22266,0.15625 -0.38281,0.44531 -0.48828,0.85937 l -0.95703,-0.11718 c 0.0781,-0.41407 0.21484,-0.7461 0.41015,-0.9961 0.20704,-0.25781 0.5,-0.45312 0.87891,-0.58594 0.39063,-0.14062 0.83203,-0.21484 1.32813,-0.21484 0.50781,0 0.91015,0.0586 1.21093,0.17578 0.3125,0.11719 0.53907,0.26953 0.6836,0.44922 0.15625,0.17188 0.26172,0.39063 0.3125,0.66406 0.0391,0.17188 0.0586,0.46875 0.0586,0.89844 v 1.32813 c 0,0.91406 0.0195,1.49218 0.0586,1.73828 0.0391,0.25 0.125,0.48437 0.25391,0.70312 h -1.03516 c -0.10546,-0.20703 -0.16796,-0.44922 -0.19531,-0.72265 z m -0.0781,-2.20704 c -0.36328,0.14454 -0.90625,0.26954 -1.6211,0.3711 -0.40234,0.0664 -0.6914,0.13672 -0.85937,0.21484 -0.16797,0.0664 -0.30078,0.17188 -0.39063,0.3125 -0.0898,0.14453 -0.13672,0.30078 -0.13672,0.46875 0,0.26172 0.0977,0.48438 0.29297,0.66406 0.19532,0.17188 0.48828,0.25391 0.87891,0.25391 0.37891,0 0.71484,-0.082 1.01562,-0.25391 0.30079,-0.16796 0.51954,-0.39453 0.66407,-0.68359 0.10547,-0.21875 0.15625,-0.54687 0.15625,-0.97656 z m 0,0"
       id="path32"
       inkscape:connector-curvature="0" />
    <path
       style="fill:#000000;fill-opacity:1;fill-rule:nonzero;stroke:none"
       d="m 127.41406,304.75781 v -0.74219 c -0.3789,0.58594 -0.92578,0.87891 -1.64062,0.87891 -0.45703,0 -0.87891,-0.13281 -1.26953,-0.39062 -0.39063,-0.25782 -0.69922,-0.61719 -0.91797,-1.07422 -0.21094,-0.45313 -0.3125,-0.98047 -0.3125,-1.58203 0,-0.58594 0.0977,-1.11329 0.29297,-1.58204 0.19531,-0.48046 0.48047,-0.84375 0.85937,-1.09375 0.39063,-0.24609 0.82422,-0.37109 1.3086,-0.37109 0.35156,0 0.66406,0.0742 0.9375,0.21484 0.27343,0.14454 0.49218,0.33985 0.66406,0.58594 v -2.89062 h 0.99609 v 8.04687 z m -3.125,-2.91015 c 0,0.74218 0.15625,1.30468 0.46875,1.67968 0.3125,0.36719 0.6836,0.54688 1.11328,0.54688 0.42969,0 0.79297,-0.17578 1.09375,-0.52735 0.3125,-0.35156 0.46875,-0.89062 0.46875,-1.62109 0,-0.79297 -0.15625,-1.37891 -0.46875,-1.75781 -0.3125,-0.375 -0.6914,-0.56641 -1.13281,-0.56641 -0.44531,0 -0.8164,0.1836 -1.11328,0.54688 -0.28906,0.36718 -0.42969,0.93359 -0.42969,1.69922 z m 0,0"
       id="path34"
       inkscape:connector-curvature="0" />
    <path
       style="fill:#000000;fill-opacity:1;fill-rule:nonzero;stroke:none"
       d="m 85.847656,316.90234 c -0.367187,0.3125 -0.71875,0.53516 -1.054687,0.66407 -0.34375,0.1289 -0.703125,0.19531 -1.09375,0.19531 -0.640625,0 -1.132813,-0.15625 -1.484375,-0.46875 -0.34375,-0.3125 -0.507813,-0.71485 -0.507813,-1.21094 0,-0.28516 0.0625,-0.54687 0.195313,-0.78125 0.125,-0.23437 0.296875,-0.41797 0.507812,-0.56641 0.203125,-0.14062 0.4375,-0.2539 0.703125,-0.33203 0.195313,-0.0391 0.488281,-0.082 0.878907,-0.13672 0.804687,-0.0859 1.394531,-0.20312 1.777343,-0.35156 0,-0.125 0,-0.21484 0,-0.2539 0,-0.40235 -0.09375,-0.6836 -0.273437,-0.83985 -0.265625,-0.23437 -0.640625,-0.35156 -1.132813,-0.35156 -0.46875,0 -0.816406,0.0859 -1.035156,0.25391 -0.226563,0.15625 -0.386719,0.44531 -0.488281,0.85937 l -0.957032,-0.11719 c 0.07813,-0.41406 0.214844,-0.74609 0.410157,-0.99609 0.203125,-0.25781 0.496093,-0.45313 0.878906,-0.58594 C 83.5625,311.74219 84,311.66797 84.5,311.66797 c 0.507812,0 0.90625,0.0586 1.210938,0.17578 0.3125,0.11719 0.535156,0.26953 0.683593,0.44922 0.15625,0.17187 0.257813,0.39062 0.3125,0.66406 0.03906,0.17188 0.05859,0.46875 0.05859,0.89844 v 1.32812 c 0,0.91407 0.01953,1.4961 0.05859,1.73828 0.03906,0.25 0.121093,0.48438 0.253906,0.70313 h -1.035156 c -0.109375,-0.20313 -0.171875,-0.44922 -0.195313,-0.72266 z m -0.07813,-2.20703 c -0.367187,0.14844 -0.910156,0.26953 -1.621093,0.3711 -0.40625,0.0664 -0.695313,0.13671 -0.859376,0.21484 -0.171874,0.0703 -0.304687,0.17187 -0.390624,0.3125 -0.09375,0.14844 -0.136719,0.30469 -0.136719,0.46875 0,0.26562 0.09766,0.48437 0.292969,0.66406 0.195312,0.17188 0.488281,0.25391 0.878906,0.25391 0.375,0 0.710937,-0.082 1.015625,-0.25391 0.296875,-0.16406 0.515625,-0.39453 0.664062,-0.68359 0.101563,-0.21875 0.15625,-0.54688 0.15625,-0.97656 z m 0,0"
       id="path36"
       inkscape:connector-curvature="0" />
    <path
       style="fill:#000000;fill-opacity:1;fill-rule:nonzero;stroke:none"
       d="m 90.460938,316.74609 0.136718,0.85938 c -0.285156,0.0625 -0.535156,0.0976 -0.742187,0.0976 -0.363281,0 -0.644531,-0.0586 -0.839844,-0.17578 -0.195313,-0.11718 -0.339844,-0.26172 -0.429687,-0.44922 -0.07813,-0.17968 -0.117188,-0.5664 -0.117188,-1.15234 v -3.35937 h -0.722656 v -0.78125 h 0.722656 v -1.44532 l 0.996094,-0.58593 v 2.03125 h 0.996094 v 0.78125 h -0.996094 v 3.39843 c 0,0.28907 0.01172,0.46875 0.03906,0.54688 0.03906,0.0781 0.09766,0.14453 0.175782,0.19531 0.07812,0.0547 0.1875,0.0781 0.332031,0.0781 0.117187,0 0.265625,-0.0117 0.449219,-0.0391 z m 0,0"
       id="path38"
       inkscape:connector-curvature="0" />
    <path
       style="fill:#000000;fill-opacity:1;fill-rule:nonzero;stroke:none"
       d="m 93.59375,316.74609 0.136719,0.85938 c -0.289063,0.0625 -0.539063,0.0976 -0.742188,0.0976 -0.367187,0 -0.644531,-0.0586 -0.839843,-0.17578 -0.195313,-0.11718 -0.34375,-0.26172 -0.429688,-0.44922 -0.07813,-0.17968 -0.117188,-0.5664 -0.117188,-1.15234 v -3.35937 h -0.722656 v -0.78125 h 0.722656 v -1.44532 l 0.996094,-0.58593 v 2.03125 h 0.996094 v 0.78125 h -0.996094 v 3.39843 c 0,0.28907 0.0078,0.46875 0.03906,0.54688 0.03906,0.0781 0.09766,0.14453 0.175781,0.19531 0.07813,0.0547 0.183594,0.0781 0.332031,0.0781 0.117188,0 0.261719,-0.0117 0.449219,-0.0391 z m 0,0"
       id="path40"
       inkscape:connector-curvature="0" />
    <path
       style="fill:#000000;fill-opacity:1;fill-rule:nonzero;stroke:none"
       d="m 98.539062,315.75 1.035157,0.11719 c -0.171875,0.60156 -0.480469,1.07031 -0.917969,1.40625 -0.429688,0.32812 -0.988281,0.48828 -1.660156,0.48828 -0.851563,0 -1.523438,-0.25781 -2.03125,-0.78125 -0.5,-0.53125 -0.742188,-1.27344 -0.742188,-2.22656 0,-0.97657 0.253906,-1.73047 0.761719,-2.26563 0.507813,-0.54687 1.160156,-0.82031 1.972656,-0.82031 0.78125,0 1.410157,0.26953 1.894531,0.80078 0.492188,0.52344 0.742188,1.26562 0.742188,2.22656 0,0.0703 0,0.15625 0,0.27344 h -4.355469 c 0.03906,0.64062 0.21875,1.12891 0.546875,1.46484 0.320313,0.33985 0.730469,0.50782 1.230469,0.50782 0.359375,0 0.667969,-0.0899 0.917969,-0.27344 0.257812,-0.19531 0.457031,-0.4961 0.605468,-0.91797 z m -3.242187,-1.60156 h 3.261719 c -0.03906,-0.49219 -0.167969,-0.86328 -0.371094,-1.11328 -0.3125,-0.375 -0.722656,-0.56641 -1.230469,-0.56641 -0.460937,0 -0.839843,0.15625 -1.152343,0.46875 -0.304688,0.30469 -0.46875,0.70312 -0.507813,1.21094 z m 0,0"
       id="path42"
       inkscape:connector-curvature="0" />
    <path
       style="fill:#000000;fill-opacity:1;fill-rule:nonzero;stroke:none"
       d="m 100.8125,317.625 v -5.83984 h 0.89844 v 0.83984 c 0.41406,-0.63281 1.03515,-0.95703 1.85547,-0.95703 0.35156,0 0.66797,0.0664 0.95703,0.19531 0.29687,0.11719 0.51562,0.28516 0.66406,0.48828 0.14063,0.19531 0.24219,0.4375 0.3125,0.72266 0.0391,0.18359 0.0586,0.5039 0.0586,0.95703 v 3.59375 h -0.99609 v -3.55469 c 0,-0.39844 -0.0391,-0.70312 -0.11719,-0.89844 -0.0781,-0.19531 -0.21484,-0.35156 -0.41015,-0.46875 -0.19532,-0.125 -0.42578,-0.19531 -0.6836,-0.19531 -0.42187,0 -0.78125,0.13672 -1.09375,0.41016 -0.30468,0.26172 -0.44922,0.76953 -0.44922,1.52344 v 3.18359 z m 0,0"
       id="path44"
       inkscape:connector-curvature="0" />
    <path
       style="fill:#000000;fill-opacity:1;fill-rule:nonzero;stroke:none"
       d="m 109.23828,316.74609 0.13672,0.85938 c -0.28906,0.0625 -0.53906,0.0976 -0.74219,0.0976 -0.36718,0 -0.64453,-0.0586 -0.83984,-0.17578 -0.19531,-0.11718 -0.34375,-0.26172 -0.42969,-0.44922 -0.0781,-0.17968 -0.11719,-0.5664 -0.11719,-1.15234 v -3.35937 h -0.72265 v -0.78125 h 0.72265 v -1.44532 l 0.9961,-0.58593 v 2.03125 h 0.99609 v 0.78125 h -0.99609 v 3.39843 c 0,0.28907 0.008,0.46875 0.0391,0.54688 0.0391,0.0781 0.0977,0.14453 0.17578,0.19531 0.0781,0.0547 0.1836,0.0781 0.33203,0.0781 0.11719,0 0.26172,-0.0117 0.44922,-0.0391 z m 0,0"
       id="path46"
       inkscape:connector-curvature="0" />
    <path
       style="fill:#000000;fill-opacity:1;fill-rule:nonzero;stroke:none"
       d="m 110.19922,310.71094 v -1.13282 h 0.99609 v 1.13282 z m 0,6.91406 v -5.83984 h 0.99609 v 5.83984 z m 0,0"
       id="path48"
       inkscape:connector-curvature="0" />
    <path
       style="fill:#000000;fill-opacity:1;fill-rule:nonzero;stroke:none"
       d="m 112.32813,314.71484 c 0,-1.07812 0.29687,-1.8789 0.89843,-2.40234 0.50782,-0.42969 1.11719,-0.64453 1.83594,-0.64453 0.80469,0 1.46484,0.26172 1.97266,0.78125 0.50781,0.52344 0.76172,1.24609 0.76172,2.16797 0,0.75781 -0.11719,1.34765 -0.35157,1.77734 -0.22656,0.42969 -0.54687,0.76953 -0.97656,1.01563 -0.42969,0.23437 -0.89844,0.35156 -1.40625,0.35156 -0.82031,0 -1.48437,-0.25781 -1.99219,-0.78125 -0.5,-0.53125 -0.74218,-1.28906 -0.74218,-2.26563 z m 1.01562,0 c 0,0.74219 0.16016,1.30469 0.48828,1.67969 0.32031,0.36719 0.73047,0.54688 1.23047,0.54688 0.49219,0 0.90234,-0.17969 1.23047,-0.54688 0.32031,-0.375 0.48828,-0.94922 0.48828,-1.71875 0,-0.71484 -0.16797,-1.26172 -0.48828,-1.64062 -0.32813,-0.375 -0.73828,-0.56641 -1.23047,-0.56641 -0.5,0 -0.91016,0.19141 -1.23047,0.56641 -0.32812,0.36718 -0.48828,0.92578 -0.48828,1.67968 z m 0,0"
       id="path50"
       inkscape:connector-curvature="0" />
    <path
       style="fill:#000000;fill-opacity:1;fill-rule:nonzero;stroke:none"
       d="m 118.95703,317.625 v -5.83984 h 0.89844 v 0.83984 c 0.41406,-0.63281 1.03516,-0.95703 1.85547,-0.95703 0.35156,0 0.66797,0.0664 0.95703,0.19531 0.29687,0.11719 0.51562,0.28516 0.66406,0.48828 0.14063,0.19531 0.24219,0.4375 0.3125,0.72266 0.0391,0.18359 0.0586,0.5039 0.0586,0.95703 v 3.59375 h -0.9961 v -3.55469 c 0,-0.39844 -0.0391,-0.70312 -0.11719,-0.89844 -0.0781,-0.19531 -0.21484,-0.35156 -0.41015,-0.46875 -0.19531,-0.125 -0.42578,-0.19531 -0.6836,-0.19531 -0.42187,0 -0.78125,0.13672 -1.09375,0.41016 -0.30468,0.26172 -0.44921,0.76953 -0.44921,1.52344 v 3.18359 z m 0,0"
       id="path52"
       inkscape:connector-curvature="0" />
    <path
       style="fill:none;stroke:#000000;stroke-width:1;stroke-linecap:round;stroke-linejoin:round;stroke-miterlimit:10;stroke-opacity:1"
       d="m 501.2,390.8 h 62.2 v 16 h -62.2 z m 0,0"
       transform="matrix(1.25,0,0,1.25,-562.5,-228.75)"
       id="path54"
       inkscape:connector-curvature="0" />
    <path
       style="fill:#000000;fill-opacity:1;fill-rule:nonzero;stroke:none"
       d="m 73.152344,273.31641 3.105468,-8.04688 h 1.132813 l 3.300781,8.04688 h -1.210937 l -0.9375,-2.44141 h -3.378907 l -0.878906,2.44141 z m 2.324218,-3.30079 h 2.734376 l -0.839844,-2.24609 c -0.261719,-0.67578 -0.449219,-1.23047 -0.566406,-1.66016 -0.105469,0.52344 -0.253907,1.03516 -0.449219,1.54297 z m 0,0"
       id="path56"
       inkscape:connector-curvature="0" />
    <path
       style="fill:#000000;fill-opacity:1;fill-rule:nonzero;stroke:none"
       d="m 85.207031,273.31641 v -0.74219 c -0.378906,0.58594 -0.925781,0.8789 -1.640625,0.8789 -0.457031,0 -0.878906,-0.13281 -1.269531,-0.39062 -0.390625,-0.25781 -0.695313,-0.61719 -0.917969,-1.07422 -0.207031,-0.45312 -0.3125,-0.98047 -0.3125,-1.58203 0,-0.58594 0.09766,-1.11328 0.292969,-1.58203 0.195313,-0.48047 0.480469,-0.84375 0.859375,-1.09375 0.390625,-0.2461 0.828125,-0.3711 1.308594,-0.3711 0.351562,0 0.664062,0.0742 0.9375,0.21485 0.273437,0.14453 0.496094,0.33984 0.664062,0.58594 v -2.89063 H 86.125 v 8.04688 z m -3.125,-2.91016 c 0,0.74219 0.15625,1.30469 0.46875,1.67969 0.3125,0.36718 0.683594,0.54687 1.113281,0.54687 0.429688,0 0.792969,-0.17578 1.09375,-0.52734 0.3125,-0.35156 0.46875,-0.89063 0.46875,-1.6211 0,-0.79296 -0.15625,-1.3789 -0.46875,-1.75781 -0.3125,-0.375 -0.691406,-0.5664 -1.132812,-0.5664 -0.441406,0 -0.8125,0.18359 -1.113281,0.54687 -0.285157,0.36719 -0.429688,0.93359 -0.429688,1.69922 z m 0,0"
       id="path58"
       inkscape:connector-curvature="0" />
    <path
       style="fill:#000000;fill-opacity:1;fill-rule:nonzero;stroke:none"
       d="m 91.464844,273.31641 v -0.74219 c -0.378906,0.58594 -0.925782,0.8789 -1.640625,0.8789 -0.457031,0 -0.878907,-0.13281 -1.269531,-0.39062 -0.390626,-0.25781 -0.699219,-0.61719 -0.917969,-1.07422 -0.210938,-0.45312 -0.3125,-0.98047 -0.3125,-1.58203 0,-0.58594 0.09766,-1.11328 0.292969,-1.58203 0.195312,-0.48047 0.480468,-0.84375 0.859374,-1.09375 0.390626,-0.2461 0.824219,-0.3711 1.308594,-0.3711 0.351563,0 0.664063,0.0742 0.9375,0.21485 0.273438,0.14453 0.492188,0.33984 0.664063,0.58594 v -2.89063 h 0.996093 v 8.04688 z m -3.125,-2.91016 c 0,0.74219 0.15625,1.30469 0.46875,1.67969 0.3125,0.36718 0.683594,0.54687 1.113281,0.54687 0.429687,0 0.792969,-0.17578 1.09375,-0.52734 0.3125,-0.35156 0.46875,-0.89063 0.46875,-1.6211 0,-0.79296 -0.15625,-1.3789 -0.46875,-1.75781 -0.3125,-0.375 -0.691406,-0.5664 -1.132813,-0.5664 -0.445312,0 -0.816406,0.18359 -1.113281,0.54687 -0.289062,0.36719 -0.429687,0.93359 -0.429687,1.69922 z m 0,0"
       id="path60"
       inkscape:connector-curvature="0" />
    <path
       style="fill:#000000;fill-opacity:1;fill-rule:nonzero;stroke:none"
       d="m 101.66797,272.35937 c -0.32813,0.36719 -0.68359,0.64063 -1.07422,0.82032 -0.37891,0.17968 -0.796875,0.27343 -1.25,0.27343 -0.820312,0 -1.472656,-0.27734 -1.953125,-0.83984 -0.390625,-0.45312 -0.585937,-0.96094 -0.585937,-1.52344 0,-0.49218 0.15625,-0.9375 0.46875,-1.32812 0.324218,-0.40235 0.804687,-0.76172 1.445312,-1.07422 -0.367188,-0.41406 -0.605469,-0.75391 -0.722656,-1.01563 -0.117188,-0.25781 -0.175782,-0.50781 -0.175782,-0.74218 0,-0.49219 0.1875,-0.91797 0.566407,-1.26953 0.375,-0.35157 0.851562,-0.52735 1.425781,-0.52735 0.54688,0 0.99609,0.17188 1.34766,0.50781 0.35156,0.32813 0.52734,0.73047 0.52734,1.21094 0,0.75781 -0.50781,1.40625 -1.52344,1.95313 l 1.44532,1.83593 c 0.16796,-0.3125 0.29687,-0.68359 0.39062,-1.11328 l 1.01563,0.21485 c -0.17188,0.70312 -0.40625,1.28515 -0.70313,1.73828 0.36328,0.49609 0.78125,0.90625 1.25,1.23047 l -0.66406,0.80078 c -0.40625,-0.25781 -0.81641,-0.64453 -1.23047,-1.15235 z m -2.01172,-4.19921 c 0.42969,-0.2461 0.70313,-0.46094 0.82031,-0.64454 0.12891,-0.19531 0.19532,-0.41015 0.19532,-0.64453 0,-0.27343 -0.0937,-0.49218 -0.27344,-0.66406 -0.17188,-0.17969 -0.38672,-0.27344 -0.644534,-0.27344 -0.261718,0 -0.484375,0.0937 -0.664062,0.27344 -0.171875,0.17188 -0.253906,0.37891 -0.253906,0.625 0,0.11719 0.02344,0.25 0.07812,0.39063 0.0625,0.13281 0.160157,0.27343 0.292969,0.42968 z m 1.38672,3.41796 -1.816408,-2.24609 c -0.535156,0.32813 -0.898437,0.625 -1.09375,0.89844 -0.183593,0.27344 -0.273437,0.54297 -0.273437,0.80078 0,0.32812 0.128906,0.66406 0.390625,1.01562 0.257812,0.35157 0.628906,0.52735 1.113281,0.52735 0.296875,0 0.605469,-0.0899 0.917969,-0.27344 0.3125,-0.17969 0.56641,-0.42187 0.76172,-0.72266 z m 0,0"
       id="path62"
       inkscape:connector-curvature="0" />
    <path
       style="fill:#000000;fill-opacity:1;fill-rule:nonzero;stroke:none"
       d="m 107.6875,273.31641 v -5.83985 h 0.89844 v 0.83985 c 0.41406,-0.63672 1.03515,-0.95704 1.85547,-0.95704 0.35156,0 0.66797,0.0664 0.95703,0.19532 0.29687,0.11718 0.51953,0.28125 0.66406,0.48828 0.14063,0.19531 0.24609,0.4375 0.3125,0.72265 0.0391,0.1836 0.0586,0.50391 0.0586,0.95704 v 3.59375 h -0.99609 v -3.55469 c 0,-0.40235 -0.0391,-0.70313 -0.11719,-0.89844 -0.0781,-0.19531 -0.21484,-0.35156 -0.41015,-0.46875 -0.19532,-0.12891 -0.42578,-0.19531 -0.6836,-0.19531 -0.41797,0 -0.78125,0.13672 -1.09375,0.41015 -0.30078,0.26172 -0.44922,0.76954 -0.44922,1.52344 v 3.1836 z m 0,0"
       id="path64"
       inkscape:connector-curvature="0" />
    <path
       style="fill:#000000;fill-opacity:1;fill-rule:nonzero;stroke:none"
       d="m 113.57422,270.40625 c 0,-1.07813 0.29687,-1.87891 0.89844,-2.40234 0.50781,-0.42969 1.11718,-0.64454 1.83593,-0.64454 0.80469,0 1.46485,0.26172 1.97266,0.78125 0.50781,0.52344 0.76172,1.2461 0.76172,2.16797 0,0.75782 -0.11719,1.34766 -0.35156,1.77735 -0.22266,0.42968 -0.54688,0.76953 -0.97657,1.01562 -0.42968,0.23438 -0.89843,0.35156 -1.40625,0.35156 -0.82031,0 -1.48437,-0.25781 -1.99218,-0.78125 -0.4961,-0.53125 -0.74219,-1.28906 -0.74219,-2.26562 z m 1.01562,0 c 0,0.74219 0.16016,1.30469 0.48829,1.67969 0.32421,0.36718 0.73437,0.54687 1.23046,0.54687 0.49219,0 0.90235,-0.17969 1.23047,-0.54687 0.32422,-0.375 0.48828,-0.94922 0.48828,-1.71875 0,-0.71485 -0.16406,-1.26172 -0.48828,-1.64063 -0.32812,-0.375 -0.73828,-0.5664 -1.23047,-0.5664 -0.49609,0 -0.90625,0.1914 -1.23046,0.5664 -0.32813,0.36719 -0.48829,0.92578 -0.48829,1.67969 z m 0,0"
       id="path66"
       inkscape:connector-curvature="0" />
    <path
       style="fill:#000000;fill-opacity:1;fill-rule:nonzero;stroke:none"
       d="m 120.18359,273.31641 v -5.83985 h 0.89844 v 0.89844 c 0.21875,-0.41406 0.42969,-0.6875 0.625,-0.82031 0.19531,-0.12891 0.41016,-0.19532 0.64453,-0.19532 0.32032,0 0.66407,0.10547 1.01563,0.3125 l -0.35156,0.91797 c -0.23438,-0.14062 -0.48047,-0.21484 -0.72266,-0.21484 -0.21094,0 -0.40625,0.0664 -0.58594,0.19531 -0.17187,0.13281 -0.29297,0.3125 -0.37109,0.54688 -0.10938,0.35156 -0.15625,0.73828 -0.15625,1.15234 v 3.04688 z m 0,0"
       id="path68"
       inkscape:connector-curvature="0" />
    <path
       style="fill:#000000;fill-opacity:1;fill-rule:nonzero;stroke:none"
       d="m 123.94922,273.31641 v -5.83985 h 0.87891 v 0.82031 c 0.17968,-0.28515 0.41796,-0.51171 0.72265,-0.68359 0.3125,-0.16797 0.66406,-0.25391 1.05469,-0.25391 0.42969,0 0.78125,0.0937 1.05469,0.27344 0.27343,0.17188 0.46875,0.41797 0.58593,0.74219 0.46875,-0.67578 1.0625,-1.01563 1.79688,-1.01563 0.58594,0 1.03515,0.16407 1.34765,0.48829 0.3125,0.3125 0.46875,0.80078 0.46875,1.46484 v 4.00391 h -0.99609 v -3.67188 c 0,-0.40234 -0.0352,-0.6875 -0.0977,-0.85937 -0.0547,-0.16797 -0.16796,-0.30469 -0.33203,-0.41016 -0.17187,-0.11719 -0.37109,-0.17578 -0.60547,-0.17578 -0.40625,0 -0.74218,0.13672 -1.01562,0.41015 -0.27344,0.27344 -0.41016,0.71094 -0.41016,1.3086 v 3.39844 h -0.99609 v -3.78907 c 0,-0.4414 -0.0781,-0.77343 -0.23437,-0.99609 -0.15625,-0.21875 -0.42188,-0.33203 -0.78125,-0.33203 -0.28907,0 -0.54688,0.0781 -0.78125,0.23437 -0.23438,0.14453 -0.40625,0.35938 -0.50782,0.64453 -0.10937,0.27344 -0.15625,0.67969 -0.15625,1.21094 v 3.02735 z m 0,0"
       id="path70"
       inkscape:connector-curvature="0" />
    <path
       style="fill:none;stroke:#000000;stroke-width:1;stroke-linecap:round;stroke-linejoin:round;stroke-miterlimit:10;stroke-opacity:1"
       d="m 501.2,501.6 h 62.2 v 16 h -62.2 z m 0,0"
       transform="matrix(1.25,0,0,1.25,-562.5,-228.75)"
       id="path72"
       inkscape:connector-curvature="0" />
    <path
       style="fill:#000000;fill-opacity:1;fill-rule:nonzero;stroke:none"
       d="m 75.316406,411.81641 v -8.04688 h 5.820313 v 0.9375 h -4.765625 v 2.48047 h 4.453125 v 0.9375 h -4.453125 v 2.73437 H 81.3125 v 0.95704 z m 0,0"
       id="path74"
       inkscape:connector-curvature="0" />
    <path
       style="fill:#000000;fill-opacity:1;fill-rule:nonzero;stroke:none"
       d="m 82.664062,411.81641 v -5.83985 h 0.878907 v 0.82031 c 0.179687,-0.28515 0.417969,-0.51171 0.722656,-0.68359 0.3125,-0.16797 0.664063,-0.25391 1.054687,-0.25391 0.429688,0 0.78125,0.0937 1.054688,0.27344 0.273438,0.17188 0.46875,0.41797 0.585938,0.74219 0.46875,-0.67578 1.0625,-1.01563 1.796874,-1.01563 0.585938,0 1.035157,0.16407 1.347657,0.48829 0.3125,0.3125 0.46875,0.80078 0.46875,1.46484 v 4.00391 h -0.996094 v -3.67188 c 0,-0.40234 -0.03516,-0.6875 -0.09766,-0.85937 -0.05469,-0.16797 -0.167969,-0.30469 -0.332031,-0.41016 -0.171876,-0.11719 -0.371094,-0.17578 -0.605469,-0.17578 -0.40625,0 -0.742188,0.13672 -1.015625,0.41015 -0.273438,0.27344 -0.410156,0.71094 -0.410156,1.3086 v 3.39844 H 86.12109 v -3.78907 c 0,-0.4414 -0.07813,-0.77343 -0.234375,-0.99609 -0.15625,-0.21875 -0.421875,-0.33203 -0.78125,-0.33203 -0.289063,0 -0.546875,0.0781 -0.78125,0.23437 -0.234375,0.14453 -0.40625,0.35938 -0.507813,0.64453 -0.109375,0.27344 -0.15625,0.67969 -0.15625,1.21094 v 3.02735 z m 0,0"
       id="path76"
       inkscape:connector-curvature="0" />
    <path
       style="fill:#000000;fill-opacity:1;fill-rule:nonzero;stroke:none"
       d="m 92.953125,411.81641 h -0.917969 v -8.04688 h 0.976563 v 2.87109 c 0.414062,-0.51953 0.945312,-0.78125 1.601562,-0.78125 0.359375,0 0.703125,0.0742 1.015625,0.21485 0.320313,0.14453 0.589844,0.34765 0.800782,0.60547 0.203124,0.26172 0.371093,0.58203 0.488281,0.95703 0.117187,0.36719 0.175781,0.75781 0.175781,1.17187 0,1.00391 -0.25,1.77735 -0.742188,2.32422 -0.5,0.54688 -1.089843,0.82031 -1.777343,0.82031 -0.695313,0 -1.230469,-0.28515 -1.621094,-0.85937 z m -0.01953,-2.96875 c 0,0.70312 0.09766,1.21093 0.292968,1.52343 0.3125,0.50782 0.726563,0.76172 1.25,0.76172 0.4375,0 0.820313,-0.1875 1.132813,-0.5664 0.3125,-0.375 0.46875,-0.9375 0.46875,-1.67969 0,-0.75391 -0.152344,-1.3125 -0.449219,-1.67969 -0.304687,-0.36328 -0.664062,-0.54687 -1.09375,-0.54687 -0.445312,0 -0.820312,0.1914 -1.132812,0.5664 -0.3125,0.37891 -0.46875,0.91797 -0.46875,1.6211 z m 0,0"
       id="path78"
       inkscape:connector-curvature="0" />
    <path
       style="fill:#000000;fill-opacity:1;fill-rule:nonzero;stroke:none"
       d="m 102.27734,409.94141 1.03516,0.11718 c -0.17187,0.60157 -0.48047,1.07032 -0.91797,1.40625 -0.42969,0.32813 -0.98828,0.48828 -1.66015,0.48828 -0.851568,0 -1.523442,-0.25781 -2.031255,-0.78125 -0.5,-0.53125 -0.742187,-1.27343 -0.742187,-2.22656 0,-0.97656 0.253906,-1.73047 0.761718,-2.26562 0.507813,-0.54688 1.160156,-0.82032 1.972654,-0.82032 0.78125,0 1.41016,0.26954 1.89453,0.80079 0.49219,0.52343 0.74219,1.26562 0.74219,2.22656 0,0.0664 0,0.15625 0,0.27344 h -4.355468 c 0.03906,0.64062 0.21875,1.1289 0.546876,1.46484 0.320312,0.33984 0.730472,0.50781 1.230472,0.50781 0.35937,0 0.66797,-0.0898 0.91797,-0.27344 0.25781,-0.19531 0.45703,-0.5 0.60546,-0.91796 z m -3.242184,-1.60157 h 3.261724 c -0.0391,-0.49218 -0.16797,-0.86328 -0.3711,-1.11328 -0.3125,-0.375 -0.72265,-0.5664 -1.23047,-0.5664 -0.46093,0 -0.839841,0.15625 -1.152341,0.46875 -0.304688,0.30078 -0.46875,0.70312 -0.507813,1.21093 z m 0,0"
       id="path80"
       inkscape:connector-curvature="0" />
    <path
       style="fill:#000000;fill-opacity:1;fill-rule:nonzero;stroke:none"
       d="m 108.33984,411.81641 v -0.74219 c -0.38281,0.58594 -0.92968,0.8789 -1.64062,0.8789 -0.46094,0 -0.87891,-0.13281 -1.26953,-0.39062 -0.39063,-0.25781 -0.69922,-0.61719 -0.91797,-1.07422 -0.21094,-0.45312 -0.3125,-0.98047 -0.3125,-1.58203 0,-0.58594 0.0977,-1.11328 0.29297,-1.58203 0.19531,-0.48047 0.47656,-0.84375 0.85937,-1.09375 0.39063,-0.2461 0.82422,-0.3711 1.3086,-0.3711 0.35156,0 0.66406,0.0742 0.9375,0.21485 0.27343,0.14453 0.49218,0.33984 0.66406,0.58594 v -2.89063 h 0.99609 v 8.04688 z m -3.125,-2.91016 c 0,0.74219 0.15625,1.30469 0.46875,1.67969 0.3125,0.36718 0.6836,0.54687 1.11329,0.54687 0.42968,0 0.78906,-0.17578 1.09375,-0.52734 0.3125,-0.35156 0.46875,-0.89063 0.46875,-1.6211 0,-0.79296 -0.15625,-1.3789 -0.46875,-1.75781 -0.3125,-0.375 -0.69532,-0.5664 -1.13282,-0.5664 -0.44531,0 -0.8164,0.18359 -1.11328,0.54687 -0.28906,0.36719 -0.42969,0.93359 -0.42969,1.69922 z m 0,0"
       id="path82"
       inkscape:connector-curvature="0" />
    <path
       style="fill:#000000;fill-opacity:1;fill-rule:nonzero;stroke:none"
       d="m 114.59375,411.81641 v -0.74219 c -0.37891,0.58594 -0.92578,0.8789 -1.64062,0.8789 -0.45704,0 -0.87891,-0.13281 -1.26954,-0.39062 -0.39062,-0.25781 -0.69531,-0.61719 -0.91796,-1.07422 -0.20704,-0.45312 -0.3125,-0.98047 -0.3125,-1.58203 0,-0.58594 0.0977,-1.11328 0.29296,-1.58203 0.19532,-0.48047 0.48047,-0.84375 0.85938,-1.09375 0.39062,-0.2461 0.82812,-0.3711 1.30859,-0.3711 0.35157,0 0.66407,0.0742 0.9375,0.21485 0.27344,0.14453 0.4961,0.33984 0.66407,0.58594 v -2.89063 h 0.99609 v 8.04688 z m -3.125,-2.91016 c 0,0.74219 0.15625,1.30469 0.46875,1.67969 0.3125,0.36718 0.68359,0.54687 1.11328,0.54687 0.42969,0 0.79297,-0.17578 1.09375,-0.52734 0.3125,-0.35156 0.46875,-0.89063 0.46875,-1.6211 0,-0.79296 -0.15625,-1.3789 -0.46875,-1.75781 -0.3125,-0.375 -0.6914,-0.5664 -1.13281,-0.5664 -0.44141,0 -0.8125,0.18359 -1.11328,0.54687 -0.28516,0.36719 -0.42969,0.93359 -0.42969,1.69922 z m 0,0"
       id="path84"
       inkscape:connector-curvature="0" />
    <path
       style="fill:#000000;fill-opacity:1;fill-rule:nonzero;stroke:none"
       d="m 117.0625,404.90234 v -1.13281 h 0.99609 v 1.13281 z m 0,6.91407 v -5.83985 h 0.99609 v 5.83985 z m 0,0"
       id="path86"
       inkscape:connector-curvature="0" />
    <path
       style="fill:#000000;fill-opacity:1;fill-rule:nonzero;stroke:none"
       d="m 119.5625,411.81641 v -5.83985 h 0.89844 v 0.83985 c 0.41797,-0.63672 1.03515,-0.95704 1.85547,-0.95704 0.35156,0 0.67187,0.0664 0.95703,0.19532 0.30078,0.11718 0.51953,0.28125 0.66406,0.48828 0.14453,0.19531 0.24609,0.4375 0.3125,0.72265 0.0391,0.1836 0.0586,0.50391 0.0586,0.95704 v 3.59375 h -0.99609 v -3.55469 c 0,-0.40235 -0.0391,-0.70313 -0.11719,-0.89844 -0.0781,-0.19531 -0.21484,-0.35156 -0.41015,-0.46875 -0.19532,-0.12891 -0.42188,-0.19531 -0.6836,-0.19531 -0.41797,0 -0.78125,0.13672 -1.09375,0.41015 -0.30078,0.26172 -0.44922,0.76954 -0.44922,1.52344 v 3.1836 z m 0,0"
       id="path88"
       inkscape:connector-curvature="0" />
    <path
       style="fill:#000000;fill-opacity:1;fill-rule:nonzero;stroke:none"
       d="m 125.64453,412.30469 0.95703,0.13672 c 0.0391,0.29687 0.14844,0.51171 0.33203,0.64453 0.2461,0.17968 0.58594,0.27343 1.01563,0.27343 0.45312,0 0.80469,-0.0937 1.05469,-0.27343 0.24609,-0.1875 0.41406,-0.44141 0.50781,-0.76172 0.0508,-0.21094 0.0703,-0.62891 0.0586,-1.26953 -0.42969,0.50781 -0.96484,0.76172 -1.60156,0.76172 -0.80859,0 -1.43359,-0.28516 -1.875,-0.85938 -0.42969,-0.58594 -0.64453,-1.28125 -0.64453,-2.08984 0,-0.5586 0.0977,-1.07422 0.29297,-1.54297 0.20703,-0.46875 0.5,-0.82422 0.8789,-1.07422 0.375,-0.25781 0.82422,-0.39063 1.34766,-0.39063 0.6875,0 1.25391,0.27344 1.69922,0.82032 v -0.70313 h 0.91797 v 5.03906 c 0,0.90625 -0.0977,1.55079 -0.29297,1.9336 -0.1836,0.375 -0.47656,0.67187 -0.87891,0.89844 -0.39062,0.21875 -0.8789,0.33203 -1.46484,0.33203 -0.70313,0 -1.26953,-0.15625 -1.69922,-0.46875 -0.41797,-0.3125 -0.62109,-0.78125 -0.60547,-1.40625 z m 0.82031,-3.51563 c 0,0.76953 0.14844,1.32813 0.44922,1.67969 0.29688,0.35156 0.67578,0.52734 1.13281,0.52734 0.45313,0 0.83985,-0.17578 1.15235,-0.52734 0.3125,-0.35156 0.46875,-0.89844 0.46875,-1.64063 0,-0.71484 -0.16406,-1.2539 -0.48828,-1.62109 -0.3125,-0.36328 -0.69141,-0.54687 -1.13282,-0.54687 -0.44531,0 -0.82031,0.18359 -1.13281,0.54687 -0.30078,0.35156 -0.44922,0.87891 -0.44922,1.58203 z m 0,0"
       id="path90"
       inkscape:connector-curvature="0" />
    <path
       style="fill:#b0d9ff;fill-opacity:1;fill-rule:nonzero;stroke:#000000;stroke-width:1;stroke-linecap:round;stroke-linejoin:round;stroke-miterlimit:10;stroke-opacity:1"
       d="m 501.2,349.40312 h 62.2 V 375.6 h -62.2 z m 0,0"
       transform="matrix(1.25,0,0,1.25,-562.5,-228.75)"
       id="path92"
       inkscape:connector-curvature="0" />
    <path
       style="fill:#000000;fill-opacity:1;fill-rule:nonzero;stroke:none"
       d="m 72.46875,221.50781 v -8.04687 h 3.046875 c 0.535156,0 0.945313,0.0312 1.230469,0.0781 0.390625,0.0703 0.714844,0.19141 0.976562,0.3711 0.273438,0.1875 0.488282,0.44531 0.644532,0.78125 0.167968,0.32812 0.253906,0.69531 0.253906,1.09375 0,0.69531 -0.222656,1.26953 -0.664063,1.73828 -0.429687,0.46875 -1.210937,0.70312 -2.34375,0.70312 h -2.070312 v 3.28125 z m 1.074219,-4.21875 h 2.089843 c 0.675782,0 1.160157,-0.125 1.445313,-0.39062 0.300781,-0.25782 0.449219,-0.61328 0.449219,-1.07422 0,-0.33594 -0.08594,-0.625 -0.253906,-0.85938 -0.167969,-0.24218 -0.398438,-0.41015 -0.683594,-0.48828 -0.167969,-0.0469 -0.5,-0.0781 -0.996094,-0.0781 h -2.050781 z m 0,0"
       id="path94"
       inkscape:connector-curvature="0" />
    <path
       style="fill:#000000;fill-opacity:1;fill-rule:nonzero;stroke:none"
       d="m 79.484375,218.59766 c 0,-1.07813 0.300781,-1.87891 0.898437,-2.40235 0.507813,-0.42969 1.121094,-0.64453 1.835938,-0.64453 0.808594,0 1.464844,0.26563 1.972656,0.78125 0.507813,0.52344 0.761719,1.24609 0.761719,2.16797 0,0.75781 -0.117187,1.34766 -0.351563,1.77734 -0.222656,0.42969 -0.546874,0.77344 -0.976562,1.01563 -0.429688,0.23437 -0.898438,0.35156 -1.40625,0.35156 -0.820312,0 -1.484375,-0.25781 -1.992188,-0.78125 -0.496093,-0.53125 -0.742187,-1.28906 -0.742187,-2.26562 z m 1.015625,0 c 0,0.74218 0.164062,1.30468 0.488281,1.67968 0.324219,0.36719 0.734375,0.54688 1.230469,0.54688 0.496094,0 0.90625,-0.17969 1.230469,-0.54688 0.324219,-0.375 0.488281,-0.94531 0.488281,-1.71875 0,-0.71093 -0.164062,-1.25781 -0.488281,-1.64062 -0.324219,-0.375 -0.734375,-0.56641 -1.230469,-0.56641 -0.496094,0 -0.90625,0.19141 -1.230469,0.56641 C 80.664062,217.28516 80.5,217.84766 80.5,218.59766 Z m 0,0"
       id="path96"
       inkscape:connector-curvature="0" />
    <path
       style="fill:#000000;fill-opacity:1;fill-rule:nonzero;stroke:none"
       d="m 85.722656,219.76953 0.976563,-0.15625 c 0.05078,0.39063 0.199219,0.69531 0.449219,0.89844 0.257812,0.21094 0.609374,0.3125 1.054687,0.3125 0.453125,0 0.792969,-0.0859 1.015625,-0.27344 0.21875,-0.17969 0.332031,-0.39453 0.332031,-0.64453 0,-0.23438 -0.09766,-0.41016 -0.292969,-0.52734 -0.144531,-0.0859 -0.484374,-0.20313 -1.015624,-0.35157 -0.730469,-0.17968 -1.238282,-0.33593 -1.523438,-0.46875 -0.273438,-0.125 -0.484375,-0.3125 -0.625,-0.54687 -0.144531,-0.23438 -0.214844,-0.49219 -0.214844,-0.78125 0,-0.25781 0.05859,-0.4961 0.175782,-0.72266 0.117187,-0.21875 0.277343,-0.41015 0.488281,-0.5664 0.15625,-0.10157 0.363281,-0.19532 0.625,-0.27344 0.273437,-0.0781 0.558593,-0.11719 0.859375,-0.11719 0.453125,0 0.851562,0.0703 1.191406,0.19531 0.351562,0.13282 0.609375,0.3086 0.78125,0.52735 0.167969,0.22656 0.285156,0.52343 0.351562,0.89843 L 89.375,217.30859 c -0.03906,-0.29687 -0.171875,-0.53125 -0.390625,-0.70312 -0.210937,-0.16406 -0.503906,-0.25391 -0.878906,-0.25391 -0.457031,0 -0.78125,0.0781 -0.976563,0.23438 -0.195312,0.14843 -0.292968,0.32422 -0.292968,0.52734 0,0.13281 0.03906,0.24609 0.117187,0.33203 0.07813,0.11719 0.207031,0.21094 0.390625,0.27344 0.08984,0.0391 0.375,0.12891 0.859375,0.25391 0.703125,0.1875 1.191406,0.33203 1.464844,0.44921 0.285156,0.11719 0.507812,0.29297 0.664062,0.52735 0.15625,0.22656 0.234375,0.5039 0.234375,0.83984 0,0.34375 -0.09766,0.65625 -0.292968,0.9375 -0.195313,0.28906 -0.476563,0.51953 -0.839844,0.6836 -0.351563,0.15625 -0.761719,0.23437 -1.230469,0.23437 -0.757813,0 -1.335937,-0.15625 -1.738281,-0.46875 -0.390625,-0.32031 -0.640625,-0.78906 -0.742188,-1.40625 z m 0,0"
       id="path98"
       inkscape:connector-curvature="0" />
    <path
       style="fill:#000000;fill-opacity:1;fill-rule:nonzero;stroke:none"
       d="m 91.738281,214.59375 v -1.13281 h 0.996094 v 1.13281 z m 0,6.91406 v -5.83984 h 0.996094 v 5.83984 z m 0,0"
       id="path100"
       inkscape:connector-curvature="0" />
    <path
       style="fill:#000000;fill-opacity:1;fill-rule:nonzero;stroke:none"
       d="m 96.40625,220.62891 0.136719,0.85937 c -0.289063,0.0625 -0.535157,0.0977 -0.742188,0.0977 -0.367187,0 -0.644531,-0.0586 -0.839843,-0.17578 -0.195313,-0.11719 -0.339844,-0.26172 -0.429688,-0.44922 -0.07813,-0.17969 -0.117188,-0.56641 -0.117188,-1.15235 v -3.35937 h -0.722656 v -0.78125 h 0.722656 v -1.44531 l 0.996094,-0.58594 v 2.03125 h 0.996094 v 0.78125 h -0.996094 v 3.39844 c 0,0.28906 0.01172,0.46875 0.03906,0.54687 0.03906,0.0781 0.09766,0.14844 0.175781,0.19531 0.07813,0.0547 0.1875,0.0781 0.332031,0.0781 0.117188,0 0.265625,-0.008 0.449219,-0.0391 z m 0,0"
       id="path102"
       inkscape:connector-curvature="0" />
    <path
       style="fill:#000000;fill-opacity:1;fill-rule:nonzero;stroke:none"
       d="m 97.363281,214.59375 v -1.13281 h 0.996094 v 1.13281 z m 0,6.91406 v -5.83984 h 0.996094 v 5.83984 z m 0,0"
       id="path104"
       inkscape:connector-curvature="0" />
    <path
       style="fill:#000000;fill-opacity:1;fill-rule:nonzero;stroke:none"
       d="m 99.492188,218.59766 c 0,-1.07813 0.296874,-1.87891 0.898442,-2.40235 0.50781,-0.42969 1.11718,-0.64453 1.83593,-0.64453 0.80469,0 1.46485,0.26563 1.97266,0.78125 0.50781,0.52344 0.76172,1.24609 0.76172,2.16797 0,0.75781 -0.11719,1.34766 -0.35156,1.77734 -0.22266,0.42969 -0.54688,0.77344 -0.97657,1.01563 -0.42968,0.23437 -0.89843,0.35156 -1.40625,0.35156 -0.82031,0 -1.48437,-0.25781 -1.99218,-0.78125 -0.496099,-0.53125 -0.742192,-1.28906 -0.742192,-2.26562 z m 1.015622,0 c 0,0.74218 0.16016,1.30468 0.48828,1.67968 0.32422,0.36719 0.73438,0.54688 1.23047,0.54688 0.49219,0 0.90235,-0.17969 1.23047,-0.54688 0.32422,-0.375 0.48828,-0.94531 0.48828,-1.71875 0,-0.71093 -0.16406,-1.25781 -0.48828,-1.64062 -0.32812,-0.375 -0.73828,-0.56641 -1.23047,-0.56641 -0.49609,0 -0.90625,0.19141 -1.23047,0.56641 -0.32812,0.36719 -0.48828,0.92969 -0.48828,1.67969 z m 0,0"
       id="path106"
       inkscape:connector-curvature="0" />
    <path
       style="fill:#000000;fill-opacity:1;fill-rule:nonzero;stroke:none"
       d="m 106.12109,221.50781 v -5.83984 h 0.89844 v 0.83984 c 0.41406,-0.63281 1.03516,-0.95703 1.85547,-0.95703 0.35156,0 0.66797,0.0703 0.95703,0.19531 0.29688,0.11719 0.51563,0.28516 0.66406,0.48828 0.14063,0.19532 0.24219,0.44141 0.3125,0.72266 0.0391,0.1875 0.0586,0.50391 0.0586,0.95703 v 3.59375 h -0.9961 v -3.55469 c 0,-0.39843 -0.0391,-0.70312 -0.11718,-0.89843 -0.0781,-0.19532 -0.21485,-0.35157 -0.41016,-0.46875 -0.19531,-0.125 -0.42578,-0.19532 -0.68359,-0.19532 -0.42188,0 -0.78125,0.13672 -1.09375,0.41016 -0.30469,0.26563 -0.44922,0.77344 -0.44922,1.52344 v 3.18359 z m 0,0"
       id="path108"
       inkscape:connector-curvature="0" />
    <path
       style="fill:#000000;fill-opacity:1;fill-rule:nonzero;stroke:none"
       d="m 113.45313,221.50781 -1.77735,-5.83984 h 1.01563 l 0.9375,3.3789 0.33203,1.25 c 0.008,-0.0625 0.11719,-0.46875 0.3125,-1.21093 l 0.91797,-3.41797 h 1.01562 l 0.87891,3.39844 0.29297,1.11328 0.33203,-1.13282 0.99609,-3.3789 h 0.95703 l -1.8164,5.83984 h -1.01563 l -0.9375,-3.49609 -0.23437,-0.9961 -1.17188,4.49219 z m 0,0"
       id="path110"
       inkscape:connector-curvature="0" />
    <path
       style="fill:#000000;fill-opacity:1;fill-rule:nonzero;stroke:none"
       d="m 120.50391,214.59375 v -1.13281 H 121.5 v 1.13281 z m 0,6.91406 v -5.83984 H 121.5 v 5.83984 z m 0,0"
       id="path112"
       inkscape:connector-curvature="0" />
    <path
       style="fill:#000000;fill-opacity:1;fill-rule:nonzero;stroke:none"
       d="m 122.61328,219.76953 0.97656,-0.15625 c 0.0469,0.39063 0.19922,0.69531 0.44922,0.89844 0.25782,0.21094 0.60938,0.3125 1.05469,0.3125 0.45313,0 0.78906,-0.0859 1.01563,-0.27344 0.21875,-0.17969 0.33203,-0.39453 0.33203,-0.64453 0,-0.23438 -0.0977,-0.41016 -0.29297,-0.52734 -0.14844,-0.0859 -0.48438,-0.20313 -1.01563,-0.35157 -0.73437,-0.17968 -1.24218,-0.33593 -1.52343,-0.46875 -0.27344,-0.125 -0.48438,-0.3125 -0.625,-0.54687 -0.14844,-0.23438 -0.21485,-0.49219 -0.21485,-0.78125 0,-0.25781 0.0586,-0.4961 0.17578,-0.72266 0.11719,-0.21875 0.27735,-0.41015 0.48828,-0.5664 0.15625,-0.10157 0.35938,-0.19532 0.625,-0.27344 0.27344,-0.0781 0.55469,-0.11719 0.85938,-0.11719 0.45312,0 0.84766,0.0703 1.19141,0.19531 0.35156,0.13282 0.60937,0.3086 0.78125,0.52735 0.16406,0.22656 0.28125,0.52343 0.35156,0.89843 l -0.97656,0.13672 c -0.0391,-0.29687 -0.17188,-0.53125 -0.39063,-0.70312 -0.21094,-0.16406 -0.50391,-0.25391 -0.87891,-0.25391 -0.46093,0 -0.78125,0.0781 -0.97656,0.23438 -0.19531,0.14843 -0.29297,0.32422 -0.29297,0.52734 0,0.13281 0.0391,0.24609 0.11719,0.33203 0.0781,0.11719 0.20313,0.21094 0.39063,0.27344 0.0859,0.0391 0.375,0.12891 0.85937,0.25391 0.70313,0.1875 1.19141,0.33203 1.46484,0.44921 0.28125,0.11719 0.50782,0.29297 0.66407,0.52735 0.15625,0.22656 0.23437,0.5039 0.23437,0.83984 0,0.34375 -0.0977,0.65625 -0.29297,0.9375 -0.19531,0.28906 -0.48047,0.51953 -0.83984,0.6836 -0.35156,0.15625 -0.76172,0.23437 -1.23047,0.23437 -0.75781,0 -1.33984,-0.15625 -1.73828,-0.46875 -0.39063,-0.32031 -0.64063,-0.78906 -0.74219,-1.40625 z m 0,0"
       id="path114"
       inkscape:connector-curvature="0" />
    <path
       style="fill:#000000;fill-opacity:1;fill-rule:nonzero;stroke:none"
       d="m 132.61328,219.63281 1.03516,0.11719 c -0.17188,0.60156 -0.48047,1.07031 -0.91797,1.40625 -0.42969,0.32812 -0.98828,0.48828 -1.66016,0.48828 -0.85156,0 -1.52344,-0.25781 -2.03125,-0.78125 -0.5,-0.53125 -0.74219,-1.27344 -0.74219,-2.22656 0,-0.97656 0.25391,-1.72656 0.76172,-2.26563 0.50782,-0.54687 1.16016,-0.82031 1.97266,-0.82031 0.78125,0 1.41016,0.26953 1.89453,0.80078 0.49219,0.52344 0.74219,1.26563 0.74219,2.22656 0,0.0703 0,0.15625 0,0.27344 h -4.35547 c 0.0391,0.64063 0.21875,1.12891 0.54687,1.46485 0.32032,0.34375 0.73047,0.50781 1.23047,0.50781 0.35938,0 0.66797,-0.0859 0.91797,-0.27344 0.25781,-0.19531 0.45703,-0.49609 0.60547,-0.91797 z m -3.24219,-1.60156 h 3.26172 c -0.0391,-0.49219 -0.16797,-0.86328 -0.37109,-1.11328 -0.3125,-0.375 -0.72266,-0.56641 -1.23047,-0.56641 -0.46094,0 -0.83984,0.15625 -1.15234,0.46875 -0.30469,0.30469 -0.46875,0.70313 -0.50782,1.21094 z m 0,0"
       id="path116"
       inkscape:connector-curvature="0" />
    <path
       style="fill:#000000;fill-opacity:1;fill-rule:nonzero;stroke:none"
       d="m 92.859375,234.375 v -8.04688 h 5.429687 v 0.9375 h -4.355468 v 2.5 h 3.769531 v 0.95704 h -3.769531 v 3.65234 z m 0,0"
       id="path118"
       inkscape:connector-curvature="0" />
    <path
       style="fill:#000000;fill-opacity:1;fill-rule:nonzero;stroke:none"
       d="m 99.730469,234.375 v -8.04688 h 5.429691 v 0.9375 h -4.35547 v 2.5 h 3.76953 v 0.95704 h -3.76953 v 3.65234 z m 0,0"
       id="path120"
       inkscape:connector-curvature="0" />
    <path
       style="fill:#000000;fill-opacity:1;fill-rule:nonzero;stroke:none"
       d="m 106.54297,234.375 v -8.04688 h 1.09375 l 4.21875,6.3086 v -6.3086 h 1.03516 v 8.04688 h -1.09375 l -4.23829,-6.32813 v 6.32813 z m 0,0"
       id="path122"
       inkscape:connector-curvature="0" />
    <path
       style="fill:none;stroke:#000000;stroke-width:1;stroke-linecap:round;stroke-linejoin:round;stroke-miterlimit:10;stroke-opacity:1"
       d="m 501.2,323.6 h 62.2 v 16 h -62.2 z m 0,0"
       transform="matrix(1.25,0,0,1.25,-562.5,-228.75)"
       id="path124"
       inkscape:connector-curvature="0" />
    <path
       style="fill:#000000;fill-opacity:1;fill-rule:nonzero;stroke:none"
       d="m 73.152344,189.31641 3.105468,-8.04688 h 1.132813 l 3.300781,8.04688 h -1.210937 l -0.9375,-2.44141 h -3.378907 l -0.878906,2.44141 z m 2.324218,-3.30079 h 2.734376 l -0.839844,-2.24609 c -0.261719,-0.67578 -0.449219,-1.23047 -0.566406,-1.66016 -0.105469,0.52344 -0.253907,1.03516 -0.449219,1.54297 z m 0,0"
       id="path126"
       inkscape:connector-curvature="0" />
    <path
       style="fill:#000000;fill-opacity:1;fill-rule:nonzero;stroke:none"
       d="m 85.207031,189.31641 v -0.74219 c -0.378906,0.58594 -0.925781,0.8789 -1.640625,0.8789 -0.457031,0 -0.878906,-0.13281 -1.269531,-0.39062 -0.390625,-0.25781 -0.695313,-0.61719 -0.917969,-1.07422 -0.207031,-0.45312 -0.3125,-0.98047 -0.3125,-1.58203 0,-0.58594 0.09766,-1.11328 0.292969,-1.58203 0.195313,-0.48047 0.480469,-0.84375 0.859375,-1.09375 0.390625,-0.2461 0.828125,-0.3711 1.308594,-0.3711 0.351562,0 0.664062,0.0742 0.9375,0.21485 0.273437,0.14453 0.496094,0.33984 0.664062,0.58594 v -2.89063 H 86.125 v 8.04688 z m -3.125,-2.91016 c 0,0.74219 0.15625,1.30469 0.46875,1.67969 0.3125,0.36718 0.683594,0.54687 1.113281,0.54687 0.429688,0 0.792969,-0.17578 1.09375,-0.52734 0.3125,-0.35156 0.46875,-0.89063 0.46875,-1.6211 0,-0.79296 -0.15625,-1.3789 -0.46875,-1.75781 -0.3125,-0.375 -0.691406,-0.5664 -1.132812,-0.5664 -0.441406,0 -0.8125,0.18359 -1.113281,0.54687 -0.285157,0.36719 -0.429688,0.93359 -0.429688,1.69922 z m 0,0"
       id="path128"
       inkscape:connector-curvature="0" />
    <path
       style="fill:#000000;fill-opacity:1;fill-rule:nonzero;stroke:none"
       d="m 91.464844,189.31641 v -0.74219 c -0.378906,0.58594 -0.925782,0.8789 -1.640625,0.8789 -0.457031,0 -0.878907,-0.13281 -1.269531,-0.39062 -0.390626,-0.25781 -0.699219,-0.61719 -0.917969,-1.07422 -0.210938,-0.45312 -0.3125,-0.98047 -0.3125,-1.58203 0,-0.58594 0.09766,-1.11328 0.292969,-1.58203 0.195312,-0.48047 0.480468,-0.84375 0.859374,-1.09375 0.390626,-0.2461 0.824219,-0.3711 1.308594,-0.3711 0.351563,0 0.664063,0.0742 0.9375,0.21485 0.273438,0.14453 0.492188,0.33984 0.664063,0.58594 v -2.89063 h 0.996093 v 8.04688 z m -3.125,-2.91016 c 0,0.74219 0.15625,1.30469 0.46875,1.67969 0.3125,0.36718 0.683594,0.54687 1.113281,0.54687 0.429687,0 0.792969,-0.17578 1.09375,-0.52734 0.3125,-0.35156 0.46875,-0.89063 0.46875,-1.6211 0,-0.79296 -0.15625,-1.3789 -0.46875,-1.75781 -0.3125,-0.375 -0.691406,-0.5664 -1.132813,-0.5664 -0.445312,0 -0.816406,0.18359 -1.113281,0.54687 -0.289062,0.36719 -0.429687,0.93359 -0.429687,1.69922 z m 0,0"
       id="path130"
       inkscape:connector-curvature="0" />
    <path
       style="fill:#000000;fill-opacity:1;fill-rule:nonzero;stroke:none"
       d="m 101.66797,188.35937 c -0.32813,0.36719 -0.68359,0.64063 -1.07422,0.82032 -0.37891,0.17968 -0.796875,0.27343 -1.25,0.27343 -0.820312,0 -1.472656,-0.27734 -1.953125,-0.83984 -0.390625,-0.45312 -0.585937,-0.96094 -0.585937,-1.52344 0,-0.49218 0.15625,-0.9375 0.46875,-1.32812 0.324218,-0.40235 0.804687,-0.76172 1.445312,-1.07422 -0.367188,-0.41406 -0.605469,-0.75391 -0.722656,-1.01563 -0.117188,-0.25781 -0.175782,-0.50781 -0.175782,-0.74218 0,-0.49219 0.1875,-0.91797 0.566407,-1.26953 0.375,-0.35157 0.851562,-0.52735 1.425781,-0.52735 0.54688,0 0.99609,0.17188 1.34766,0.50781 0.35156,0.32813 0.52734,0.73047 0.52734,1.21094 0,0.75781 -0.50781,1.40625 -1.52344,1.95313 l 1.44532,1.83593 c 0.16796,-0.3125 0.29687,-0.68359 0.39062,-1.11328 l 1.01563,0.21485 c -0.17188,0.70312 -0.40625,1.28515 -0.70313,1.73828 0.36328,0.49609 0.78125,0.90625 1.25,1.23047 l -0.66406,0.80078 c -0.40625,-0.25781 -0.81641,-0.64453 -1.23047,-1.15235 z m -2.01172,-4.19921 c 0.42969,-0.2461 0.70313,-0.46094 0.82031,-0.64454 0.12891,-0.19531 0.19532,-0.41015 0.19532,-0.64453 0,-0.27343 -0.0937,-0.49218 -0.27344,-0.66406 -0.17188,-0.17969 -0.38672,-0.27344 -0.644534,-0.27344 -0.261718,0 -0.484375,0.0937 -0.664062,0.27344 -0.171875,0.17188 -0.253906,0.37891 -0.253906,0.625 0,0.11719 0.02344,0.25 0.07812,0.39063 0.0625,0.13281 0.160157,0.27343 0.292969,0.42968 z m 1.38672,3.41796 -1.816408,-2.24609 c -0.535156,0.32813 -0.898437,0.625 -1.09375,0.89844 -0.183593,0.27344 -0.273437,0.54297 -0.273437,0.80078 0,0.32812 0.128906,0.66406 0.390625,1.01562 0.257812,0.35157 0.628906,0.52735 1.113281,0.52735 0.296875,0 0.605469,-0.0898 0.917969,-0.27344 0.3125,-0.17969 0.56641,-0.42187 0.76172,-0.72266 z m 0,0"
       id="path132"
       inkscape:connector-curvature="0" />
    <path
       style="fill:#000000;fill-opacity:1;fill-rule:nonzero;stroke:none"
       d="m 107.6875,189.31641 v -5.83985 h 0.89844 v 0.83985 c 0.41406,-0.63672 1.03515,-0.95704 1.85547,-0.95704 0.35156,0 0.66797,0.0664 0.95703,0.19532 0.29687,0.11718 0.51953,0.28125 0.66406,0.48828 0.14063,0.19531 0.24609,0.4375 0.3125,0.72265 0.0391,0.1836 0.0586,0.50391 0.0586,0.95704 v 3.59375 h -0.99609 v -3.55469 c 0,-0.40235 -0.0391,-0.70313 -0.11719,-0.89844 -0.0781,-0.19531 -0.21484,-0.35156 -0.41015,-0.46875 -0.19532,-0.12891 -0.42578,-0.19531 -0.6836,-0.19531 -0.41797,0 -0.78125,0.13672 -1.09375,0.41015 -0.30078,0.26172 -0.44922,0.76954 -0.44922,1.52344 v 3.1836 z m 0,0"
       id="path134"
       inkscape:connector-curvature="0" />
    <path
       style="fill:#000000;fill-opacity:1;fill-rule:nonzero;stroke:none"
       d="m 113.57422,186.40625 c 0,-1.07813 0.29687,-1.87891 0.89844,-2.40234 0.50781,-0.42969 1.11718,-0.64454 1.83593,-0.64454 0.80469,0 1.46485,0.26172 1.97266,0.78125 0.50781,0.52344 0.76172,1.2461 0.76172,2.16797 0,0.75782 -0.11719,1.34766 -0.35156,1.77735 -0.22266,0.42968 -0.54688,0.76953 -0.97657,1.01562 -0.42968,0.23438 -0.89843,0.35156 -1.40625,0.35156 -0.82031,0 -1.48437,-0.25781 -1.99218,-0.78125 -0.4961,-0.53125 -0.74219,-1.28906 -0.74219,-2.26562 z m 1.01562,0 c 0,0.74219 0.16016,1.30469 0.48829,1.67969 0.32421,0.36718 0.73437,0.54687 1.23046,0.54687 0.49219,0 0.90235,-0.17969 1.23047,-0.54687 0.32422,-0.375 0.48828,-0.94922 0.48828,-1.71875 0,-0.71485 -0.16406,-1.26172 -0.48828,-1.64063 -0.32812,-0.375 -0.73828,-0.5664 -1.23047,-0.5664 -0.49609,0 -0.90625,0.1914 -1.23046,0.5664 -0.32813,0.36719 -0.48829,0.92578 -0.48829,1.67969 z m 0,0"
       id="path136"
       inkscape:connector-curvature="0" />
    <path
       style="fill:#000000;fill-opacity:1;fill-rule:nonzero;stroke:none"
       d="m 120.18359,189.31641 v -5.83985 h 0.89844 v 0.89844 c 0.21875,-0.41406 0.42969,-0.6875 0.625,-0.82031 0.19531,-0.12891 0.41016,-0.19532 0.64453,-0.19532 0.32032,0 0.66407,0.10547 1.01563,0.3125 l -0.35156,0.91797 c -0.23438,-0.14062 -0.48047,-0.21484 -0.72266,-0.21484 -0.21094,0 -0.40625,0.0664 -0.58594,0.19531 -0.17187,0.13281 -0.29297,0.3125 -0.37109,0.54688 -0.10938,0.35156 -0.15625,0.73828 -0.15625,1.15234 v 3.04688 z m 0,0"
       id="path138"
       inkscape:connector-curvature="0" />
    <path
       style="fill:#000000;fill-opacity:1;fill-rule:nonzero;stroke:none"
       d="m 123.94922,189.31641 v -5.83985 h 0.87891 v 0.82031 c 0.17968,-0.28515 0.41796,-0.51171 0.72265,-0.68359 0.3125,-0.16797 0.66406,-0.25391 1.05469,-0.25391 0.42969,0 0.78125,0.0937 1.05469,0.27344 0.27343,0.17188 0.46875,0.41797 0.58593,0.74219 0.46875,-0.67578 1.0625,-1.01563 1.79688,-1.01563 0.58594,0 1.03515,0.16407 1.34765,0.48829 0.3125,0.3125 0.46875,0.80078 0.46875,1.46484 v 4.00391 h -0.99609 v -3.67188 c 0,-0.40234 -0.0352,-0.6875 -0.0977,-0.85937 -0.0547,-0.16797 -0.16796,-0.30469 -0.33203,-0.41016 -0.17187,-0.11719 -0.37109,-0.17578 -0.60547,-0.17578 -0.40625,0 -0.74218,0.13672 -1.01562,0.41015 -0.27344,0.27344 -0.41016,0.71094 -0.41016,1.3086 v 3.39844 h -0.99609 v -3.78907 c 0,-0.4414 -0.0781,-0.77343 -0.23437,-0.99609 -0.15625,-0.21875 -0.42188,-0.33203 -0.78125,-0.33203 -0.28907,0 -0.54688,0.0781 -0.78125,0.23437 -0.23438,0.14453 -0.40625,0.35938 -0.50782,0.64453 -0.10937,0.27344 -0.15625,0.67969 -0.15625,1.21094 v 3.02735 z m 0,0"
       id="path140"
       inkscape:connector-curvature="0" />
    <path
       style="fill:none;stroke:#000000;stroke-width:1;stroke-linecap:round;stroke-linejoin:round;stroke-miterlimit:10;stroke-opacity:1"
       d="m 532.3,501.6 v -6.4"
       transform="matrix(1.25,0,0,1.25,-562.5,-228.75)"
       id="path142"
       inkscape:connector-curvature="0" />
    <path
       style="fill:none;stroke:#000000;stroke-width:1;stroke-linecap:butt;stroke-linejoin:miter;stroke-miterlimit:10;stroke-opacity:1"
       d="m 532.3,491.2 v 4 m -1.5,0 1.5,-4 1.5,4"
       transform="matrix(1.25,0,0,1.25,-562.5,-228.75)"
       id="path144"
       inkscape:connector-curvature="0" />
    <path
       style="fill:none;stroke:#000000;stroke-width:1;stroke-linecap:round;stroke-linejoin:round;stroke-miterlimit:10;stroke-opacity:1"
       d="M 532.3,473.3 V 448.1"
       transform="matrix(1.25,0,0,1.25,-562.5,-228.75)"
       id="path146"
       inkscape:connector-curvature="0" />
    <path
       style="fill:none;stroke:#000000;stroke-width:1;stroke-linecap:butt;stroke-linejoin:miter;stroke-miterlimit:10;stroke-opacity:1"
       d="m 532.3,444.1 v 4 m -1.5,0 1.5,-4 1.5,4"
       transform="matrix(1.25,0,0,1.25,-562.5,-228.75)"
       id="path148"
       inkscape:connector-curvature="0" />
    <path
       style="fill:none;stroke:#000000;stroke-width:1;stroke-linecap:round;stroke-linejoin:round;stroke-miterlimit:10;stroke-opacity:1"
       d="m 532.3,416 v -3.3"
       transform="matrix(1.25,0,0,1.25,-562.5,-228.75)"
       id="path150"
       inkscape:connector-curvature="0" />
    <path
       style="fill:none;stroke:#000000;stroke-width:1;stroke-linecap:butt;stroke-linejoin:miter;stroke-miterlimit:10;stroke-opacity:1"
       d="m 532.3,408.7 v 4 m -1.5,0 1.5,-4 1.5,4"
       transform="matrix(1.25,0,0,1.25,-562.5,-228.75)"
       id="path152"
       inkscape:connector-curvature="0" />
    <path
       style="fill:none;stroke:#000000;stroke-width:1;stroke-linecap:round;stroke-linejoin:round;stroke-miterlimit:10;stroke-opacity:1"
       d="m 532.3,390.8 v -9.3"
       transform="matrix(1.25,0,0,1.25,-562.5,-228.75)"
       id="path154"
       inkscape:connector-curvature="0" />
    <path
       style="fill:none;stroke:#000000;stroke-width:1;stroke-linecap:butt;stroke-linejoin:miter;stroke-miterlimit:10;stroke-opacity:1"
       d="m 532.3,377.5 v 4 m -1.5,0 1.5,-4 1.5,4"
       transform="matrix(1.25,0,0,1.25,-562.5,-228.75)"
       id="path156"
       inkscape:connector-curvature="0" />
    <path
       style="fill:none;stroke:#000000;stroke-width:1;stroke-linecap:round;stroke-linejoin:round;stroke-miterlimit:10;stroke-opacity:1"
       d="M 532.3,349.40312 V 345.5"
       transform="matrix(1.25,0,0,1.25,-562.5,-228.75)"
       id="path158"
       inkscape:connector-curvature="0" />
    <path
       style="fill:none;stroke:#000000;stroke-width:1;stroke-linecap:butt;stroke-linejoin:miter;stroke-miterlimit:10;stroke-opacity:1"
       d="m 532.3,341.5 v 4 m -1.5,0 1.5,-4 1.5,4"
       transform="matrix(1.25,0,0,1.25,-562.5,-228.75)"
       id="path160"
       inkscape:connector-curvature="0" />
    <path
       style="fill:#000000;fill-opacity:1;fill-rule:nonzero;stroke:none"
       d="m 82.746094,445.92187 0.996094,-0.0976 c 0.05078,0.40625 0.164062,0.73828 0.332031,0.99609 0.183593,0.26563 0.457031,0.46875 0.820312,0.625 0.363281,0.15625 0.773438,0.23438 1.230469,0.23438 0.402344,0 0.761719,-0.0586 1.074219,-0.17578 0.3125,-0.11719 0.546875,-0.27735 0.703125,-0.48829 0.15625,-0.21875 0.234375,-0.45312 0.234375,-0.70312 0,-0.24219 -0.07813,-0.46094 -0.234375,-0.64453 -0.144532,-0.19531 -0.382813,-0.35547 -0.722656,-0.48828 -0.207032,-0.0859 -0.683594,-0.21875 -1.425782,-0.39063 -0.742187,-0.17969 -1.261718,-0.35156 -1.5625,-0.50781 -0.378906,-0.19531 -0.664062,-0.4375 -0.859375,-0.74219 -0.183593,-0.29687 -0.273437,-0.63281 -0.273437,-1.01562 0,-0.39844 0.109375,-0.78125 0.332031,-1.13282 0.234375,-0.35156 0.574219,-0.61718 1.015625,-0.80078 0.441406,-0.17968 0.9375,-0.27343 1.484375,-0.27343 0.597656,0 1.125,0.0976 1.582031,0.29296 0.457032,0.1875 0.800782,0.46485 1.035156,0.83985 0.246094,0.3789 0.382813,0.80078 0.410157,1.26953 l -1.035157,0.0781 c -0.05078,-0.50781 -0.234374,-0.89062 -0.546874,-1.15234 -0.3125,-0.25781 -0.78125,-0.39062 -1.40625,-0.39062 -0.636719,0 -1.105469,0.11718 -1.40625,0.35156 -0.300782,0.23437 -0.449219,0.52344 -0.449219,0.85937 0,0.28907 0.105469,0.52344 0.3125,0.70313 0.207031,0.19531 0.742187,0.39062 1.601562,0.58594 0.871094,0.19531 1.472657,0.36718 1.796875,0.50781 0.46875,0.21094 0.8125,0.48437 1.035156,0.82031 0.222657,0.32813 0.332032,0.71484 0.332032,1.15234 0,0.42188 -0.125,0.82032 -0.371094,1.21094 -0.246094,0.38281 -0.597656,0.67188 -1.054688,0.87891 -0.457031,0.20703 -0.96875,0.3125 -1.542968,0.3125 -0.730469,0 -1.339844,-0.10547 -1.835938,-0.3125 -0.496094,-0.21875 -0.886718,-0.53516 -1.171875,-0.95703 -0.273437,-0.42969 -0.417969,-0.90625 -0.429687,-1.44532 z m 0,0"
       id="path280"
       inkscape:connector-curvature="0" />
    <path
       style="fill:#000000;fill-opacity:1;fill-rule:nonzero;stroke:none"
       d="m 90.113281,445.58984 c 0,-1.07812 0.300781,-1.8789 0.898438,-2.40234 0.507812,-0.42969 1.121093,-0.64453 1.835937,-0.64453 0.808594,0 1.464844,0.26172 1.972656,0.78125 0.507813,0.52344 0.761719,1.24609 0.761719,2.16797 0,0.75781 -0.117187,1.34765 -0.351562,1.77734 -0.222657,0.42969 -0.546875,0.76953 -0.976563,1.01563 -0.429687,0.23437 -0.898437,0.35156 -1.40625,0.35156 -0.820312,0 -1.484375,-0.25781 -1.992187,-0.78125 -0.496094,-0.53125 -0.742188,-1.28906 -0.742188,-2.26563 z m 1.015625,0 c 0,0.74219 0.164063,1.30469 0.488282,1.67969 0.324218,0.36719 0.734374,0.54688 1.230468,0.54688 0.496094,0 0.90625,-0.17969 1.230469,-0.54688 0.324219,-0.375 0.488281,-0.94922 0.488281,-1.71875 0,-0.71484 -0.164062,-1.26172 -0.488281,-1.64062 -0.324219,-0.375 -0.734375,-0.56641 -1.230469,-0.56641 -0.496094,0 -0.90625,0.19141 -1.230468,0.56641 -0.324219,0.36718 -0.488282,0.92578 -0.488282,1.67968 z m 0,0"
       id="path282"
       inkscape:connector-curvature="0" />
    <path
       style="fill:#000000;fill-opacity:1;fill-rule:nonzero;stroke:none"
       d="m 100.57031,448.5 v -0.85938 c -0.45703,0.66407 -1.074216,0.9961 -1.855466,0.9961 -0.339844,0 -0.65625,-0.0664 -0.957032,-0.19531 -0.300781,-0.14063 -0.527343,-0.3125 -0.683593,-0.50782 -0.144531,-0.19531 -0.242188,-0.43359 -0.292969,-0.72265 -0.03906,-0.19532 -0.05859,-0.50782 -0.05859,-0.9375 v -3.61328 h 0.976563 v 3.24218 c 0,0.52344 0.02734,0.8711 0.07813,1.03516 0.05078,0.26562 0.175781,0.46875 0.371094,0.625 0.207031,0.14844 0.460937,0.21484 0.761718,0.21484 0.300782,0 0.578125,-0.0664 0.839844,-0.21484 0.261721,-0.15625 0.441411,-0.35938 0.546881,-0.625 0.10546,-0.25781 0.15625,-0.64453 0.15625,-1.15234 v -3.125 h 0.99609 V 448.5 Z m 0,0"
       id="path284"
       inkscape:connector-curvature="0" />
    <path
       style="fill:#000000;fill-opacity:1;fill-rule:nonzero;stroke:none"
       d="m 102.98047,448.5 v -5.83984 h 0.89844 v 0.89843 c 0.21875,-0.41406 0.42968,-0.6875 0.625,-0.82031 0.19531,-0.12891 0.41015,-0.19531 0.64453,-0.19531 0.32422,0 0.66406,0.10547 1.01562,0.3125 l -0.35156,0.91797 c -0.23437,-0.14063 -0.47656,-0.21485 -0.72266,-0.21485 -0.21093,0 -0.40625,0.0664 -0.58593,0.19532 -0.17188,0.13281 -0.29297,0.3125 -0.3711,0.54687 -0.10547,0.35156 -0.15625,0.73828 -0.15625,1.15234 V 448.5 Z m 0,0"
       id="path286"
       inkscape:connector-curvature="0" />
    <path
       style="fill:#000000;fill-opacity:1;fill-rule:nonzero;stroke:none"
       d="m 110.55469,446.37109 0.97656,0.11719 c -0.10547,0.67969 -0.37891,1.20703 -0.82031,1.58203 -0.44531,0.38281 -0.98438,0.56641 -1.6211,0.56641 -0.79687,0 -1.43359,-0.25781 -1.91406,-0.78125 -0.48437,-0.51953 -0.72265,-1.26953 -0.72265,-2.2461 0,-0.63281 0.10156,-1.1914 0.3125,-1.66015 0.20703,-0.46875 0.51953,-0.82031 0.9375,-1.05469 0.42968,-0.23437 0.89843,-0.35156 1.40625,-0.35156 0.625,0 1.13671,0.16797 1.54296,0.48828 0.40235,0.3125 0.66407,0.76172 0.78125,1.34766 l -0.95703,0.15625 c -0.0937,-0.39063 -0.2539,-0.6836 -0.48828,-0.87891 -0.23437,-0.20313 -0.51562,-0.3125 -0.83984,-0.3125 -0.50781,0 -0.91797,0.1875 -1.23047,0.54687 -0.30078,0.35157 -0.44922,0.91407 -0.44922,1.67969 0,0.79688 0.14844,1.36719 0.44922,1.71875 0.29687,0.35156 0.6875,0.52735 1.17187,0.52735 0.39063,0 0.71485,-0.11719 0.97657,-0.35157 0.25781,-0.23437 0.42187,-0.59765 0.48828,-1.09375 z m 0,0"
       id="path288"
       inkscape:connector-curvature="0" />
    <path
       style="fill:#000000;fill-opacity:1;fill-rule:nonzero;stroke:none"
       d="m 116.35547,446.625 1.03516,0.11719 c -0.17188,0.60156 -0.47657,1.07031 -0.91797,1.40625 -0.42969,0.32812 -0.98438,0.48828 -1.66016,0.48828 -0.84766,0 -1.52344,-0.25781 -2.03125,-0.78125 -0.49609,-0.53125 -0.74219,-1.27344 -0.74219,-2.22656 0,-0.97657 0.25391,-1.73047 0.76172,-2.26563 0.50781,-0.54687 1.16406,-0.82031 1.97266,-0.82031 0.78125,0 1.41015,0.26953 1.89453,0.80078 0.49219,0.52344 0.74219,1.26562 0.74219,2.22656 0,0.0703 0,0.15625 0,0.27344 h -4.35547 c 0.0391,0.64062 0.21875,1.12891 0.54687,1.46484 0.32422,0.33985 0.73438,0.50782 1.23047,0.50782 0.36328,0 0.66797,-0.0899 0.91797,-0.27344 0.25781,-0.19531 0.46094,-0.4961 0.60547,-0.91797 z m -3.24219,-1.60156 h 3.26172 c -0.0391,-0.49219 -0.16406,-0.86328 -0.37109,-1.11328 -0.3125,-0.375 -0.72266,-0.56641 -1.23047,-0.56641 -0.45703,0 -0.83985,0.15625 -1.15235,0.46875 -0.30078,0.30469 -0.46875,0.70312 -0.50781,1.21094 z m 0,0"
       id="path290"
       inkscape:connector-curvature="0" />
    <path
       style="fill:#000000;fill-opacity:1;fill-rule:nonzero;stroke:none"
       d="m 118.23828,446.76172 0.97656,-0.15625 c 0.0508,0.39062 0.19922,0.6914 0.44922,0.89844 0.25782,0.21093 0.60938,0.3125 1.05469,0.3125 0.45313,0 0.79297,-0.0899 1.01563,-0.27344 0.21875,-0.17969 0.33203,-0.39453 0.33203,-0.64453 0,-0.23438 -0.0977,-0.41016 -0.29297,-0.52735 -0.14453,-0.0898 -0.48438,-0.20703 -1.01563,-0.35156 -0.73047,-0.17969 -1.23828,-0.33594 -1.52343,-0.46875 -0.27344,-0.12891 -0.48438,-0.3125 -0.625,-0.54687 -0.14454,-0.23438 -0.21485,-0.49219 -0.21485,-0.78125 0,-0.25782 0.0586,-0.4961 0.17578,-0.72266 0.11719,-0.21875 0.27735,-0.41016 0.48828,-0.56641 0.15625,-0.10156 0.36329,-0.19531 0.625,-0.27343 0.27344,-0.0781 0.5586,-0.11719 0.85938,-0.11719 0.45312,0 0.85156,0.0664 1.19141,0.19531 0.35156,0.13281 0.60937,0.30859 0.78125,0.52734 0.16796,0.22657 0.28515,0.52344 0.35156,0.89844 l -0.97656,0.13672 c -0.0391,-0.29687 -0.17188,-0.53125 -0.39063,-0.70312 -0.21094,-0.16797 -0.50391,-0.25391 -0.87891,-0.25391 -0.45703,0 -0.78125,0.0781 -0.97656,0.23437 -0.19531,0.14844 -0.29297,0.32032 -0.29297,0.52735 0,0.13281 0.0391,0.24609 0.11719,0.33203 0.0781,0.11719 0.20703,0.21094 0.39063,0.27344 0.0898,0.0391 0.375,0.125 0.85937,0.2539 0.70313,0.1836 1.19141,0.33203 1.46484,0.44922 0.28516,0.11719 0.50782,0.29297 0.66407,0.52735 0.15625,0.22265 0.23437,0.5039 0.23437,0.83984 0,0.34375 -0.0977,0.65625 -0.29297,0.9375 -0.19531,0.28906 -0.47656,0.51562 -0.83984,0.68359 -0.35156,0.15625 -0.76172,0.23438 -1.23047,0.23438 -0.75781,0 -1.33594,-0.15625 -1.73828,-0.46875 -0.39063,-0.32422 -0.64063,-0.79297 -0.74219,-1.40625 z m 0,0"
       id="path292"
       inkscape:connector-curvature="0" />
    <path
       style="fill:none;stroke:#000000;stroke-width:1;stroke-linecap:round;stroke-linejoin:round;stroke-miterlimit:10;stroke-opacity:1"
       d="m 532.3,528.8 v -5.3"
       transform="matrix(1.25,0,0,1.25,-562.5,-228.75)"
       id="path300"
       inkscape:connector-curvature="0" />
    <path
       style="fill:none;stroke:#000000;stroke-width:1;stroke-linecap:butt;stroke-linejoin:miter;stroke-miterlimit:10;stroke-opacity:1"
       d="m 532.3,519.5 v 4 m -1.5,0 1.5,-4 1.5,4"
       transform="matrix(1.25,0,0,1.25,-562.5,-228.75)"
       id="path302"
       inkscape:connector-curvature="0" />
    <path
       style="fill:none;stroke:#000000;stroke-width:1;stroke-linecap:round;stroke-linejoin:round;stroke-miterlimit:10;stroke-opacity:1"
       d="m 523.125,453.1875 h -29.60938 c -2.20937,0 -4,-1.7875 -4,-4 0,-0.003 0,-0.006 0,-0.0156 l 0.15625,-46.15937 c 0.009,-2.19375 1.78438,-3.975 3.97813,-3.98438 l 1.65,-0.0125"
       transform="matrix(1.25,0,0,1.25,-562.5,-228.75)"
       id="path304"
       inkscape:connector-curvature="0" />
    <path
       style="fill:none;stroke:#000000;stroke-width:1;stroke-linecap:butt;stroke-linejoin:miter;stroke-miterlimit:10;stroke-opacity:1"
       d="m 499.3,398.99375 -4,0.0219 m -0.006,-1.5 4.00625,1.47813 -3.99063,1.52187"
       transform="matrix(1.25,0,0,1.25,-562.5,-228.75)"
       id="path306"
       inkscape:connector-curvature="0" />
    <path
       style="fill:none;stroke:#000000;stroke-width:1;stroke-linecap:round;stroke-linejoin:round;stroke-miterlimit:10;stroke-opacity:1"
       d="m 532.3,385.1875 -38.08438,0.0281 c -2.19687,0.003 -3.98125,-1.76562 -4,-3.9625 l -0.42812,-45.6156 c -0.0219,-2.20625 1.75625,-4.01563 3.9625,-4.0375 0.0125,0 0.025,0 0.0375,0 H 495.3"
       transform="matrix(1.25,0,0,1.25,-562.5,-228.75)"
       id="path308"
       inkscape:connector-curvature="0" />
    <path
       style="fill:none;stroke:#000000;stroke-width:1;stroke-linecap:butt;stroke-linejoin:miter;stroke-miterlimit:10;stroke-opacity:1"
       d="m 499.3,331.6 h -4 m 0,-1.5 4,1.5 -4,1.5"
       transform="matrix(1.25,0,0,1.25,-562.5,-228.75)"
       id="path310"
       inkscape:connector-curvature="0" />
    <path
       style="fill:none;stroke:#000000;stroke-width:1;stroke-linecap:round;stroke-linejoin:round;stroke-miterlimit:10;stroke-opacity:1"
       d="m 532.5,453.1875 h 12 c 2.2125,0 4,-1.7875 4,-4 V 448.1"
       transform="matrix(1.25,0,0,1.25,-562.5,-228.75)"
       id="path316"
       inkscape:connector-curvature="0" />
    <path
       style="fill:none;stroke:#000000;stroke-width:1;stroke-linecap:butt;stroke-linejoin:miter;stroke-miterlimit:10;stroke-opacity:1"
       d="m 548.5,444.1 v 4 m -1.5,0 1.5,-4 1.5,4"
       transform="matrix(1.25,0,0,1.25,-562.5,-228.75)"
       id="path318"
       inkscape:connector-curvature="0" />
    <path
       style="fill:none;stroke:#000000;stroke-width:1;stroke-linecap:round;stroke-linejoin:round;stroke-miterlimit:10;stroke-opacity:1"
       d="m 532.5,453.1875 h -12.1 c -2.20938,0 -4,-1.7875 -4,-4 V 448.1"
       transform="matrix(1.25,0,0,1.25,-562.5,-228.75)"
       id="path320"
       inkscape:connector-curvature="0" />
    <path
       style="fill:none;stroke:#000000;stroke-width:1;stroke-linecap:butt;stroke-linejoin:miter;stroke-miterlimit:10;stroke-opacity:1"
       d="m 516.4,444.1 v 4 m -1.5,0 1.5,-4 1.5,4"
       transform="matrix(1.25,0,0,1.25,-562.5,-228.75)"
       id="path322"
       inkscape:connector-curvature="0" />
    <path
       style="fill:#000000;fill-opacity:1;fill-rule:nonzero;stroke:none"
       d="m 17.925781,258.81641 c -0.07813,0.0976 -0.15625,0.19531 -0.234375,0.29296 -0.332031,0.41016 -0.527344,0.58594 -0.683594,0.58594 -0.136718,0 -0.175781,-0.0976 -0.175781,-0.19531 0,-0.0977 0.03906,-0.29297 0.15625,-0.68359 l 0.625,-2.28516 c 0.05859,-0.23438 0.117188,-0.48828 0.117188,-0.68359 0,-0.41016 -0.253907,-0.6836 -0.742188,-0.6836 -0.722656,0 -1.464843,0.6836 -2.597656,2.48047 l 0.761719,-2.46094 -0.05859,-0.0195 c -0.585938,0.11719 -0.898438,0.17578 -1.816406,0.35156 v 0.17579 c 0.566406,0.0195 0.742187,0.0781 0.742187,0.3125 0,0.0586 -0.01953,0.13671 -0.03906,0.17578 L 12.90625,260.125 h 0.839844 c 0.527344,-1.77734 0.625,-2.03125 1.132812,-2.79297 0.703125,-1.03516 1.210938,-1.60156 1.660156,-1.60156 0.175782,0 0.273438,0.13672 0.273438,0.33203 0,0.13672 -0.07813,0.54687 -0.15625,0.89844 l -0.488281,1.8164 c -0.175781,0.58594 -0.195313,0.72266 -0.195313,0.83985 0,0.42968 0.253906,0.60547 0.527344,0.60547 0.527344,0 0.820312,-0.21485 1.582031,-1.26954 z m 0,0"
       id="path484"
       inkscape:connector-curvature="0" />
    <g
       clip-path="url(#clip2)"
       id="g490"
       style="clip-rule:nonzero">
      <path
         style="fill:#000000;fill-opacity:1;fill-rule:nonzero;stroke:none"
         d="m 24.765625,256.98437 2.226563,-2.22656 c 0.117187,-0.13672 0.15625,-0.15625 0.15625,-0.23437 0,-0.13672 -0.117188,-0.23438 -0.234376,-0.23438 -0.07812,0 -0.136718,0.0391 -0.234374,0.15625 l -2.246094,2.22656 -2.246094,-2.22656 c -0.117188,-0.13672 -0.15625,-0.15625 -0.234375,-0.15625 -0.117187,0 -0.234375,0.0977 -0.234375,0.23438 0,0.0781 0.05859,0.13672 0.15625,0.23437 l 2.226562,2.22656 -2.226562,2.2461 c -0.117188,0.0976 -0.15625,0.17578 -0.15625,0.23437 0,0.13672 0.117188,0.23438 0.234375,0.23438 0.07813,0 0.117187,-0.0195 0.234375,-0.15625 l 2.246094,-2.22656 2.246094,2.22656 c 0.09766,0.11719 0.175781,0.15625 0.234374,0.15625 0.136719,0 0.234376,-0.0977 0.234376,-0.23438 0,-0.0781 -0.03906,-0.0976 -0.15625,-0.23437 z m 0,0"
         id="path486"
         inkscape:connector-curvature="0" />
      <path
         style="fill:#000000;fill-opacity:1;fill-rule:nonzero;stroke:none"
         d="m 24.765625,256.98437 2.226563,-2.22656 c 0.117187,-0.13672 0.15625,-0.15625 0.15625,-0.23437 0,-0.13672 -0.117188,-0.23438 -0.234376,-0.23438 -0.07812,0 -0.136718,0.0391 -0.234374,0.15625 l -2.246094,2.22656 -2.246094,-2.22656 c -0.117188,-0.13672 -0.15625,-0.15625 -0.234375,-0.15625 -0.117187,0 -0.234375,0.0977 -0.234375,0.23438 0,0.0781 0.05859,0.13672 0.15625,0.23437 l 2.226562,2.22656 -2.226562,2.2461 c -0.117188,0.0976 -0.15625,0.17578 -0.15625,0.23437 0,0.13672 0.117188,0.23438 0.234375,0.23438 0.07813,0 0.117187,-0.0195 0.234375,-0.15625 l 2.246094,-2.22656 2.246094,2.22656 c 0.09766,0.11719 0.175781,0.15625 0.234374,0.15625 0.136719,0 0.234376,-0.0977 0.234376,-0.23438 0,-0.0781 -0.03906,-0.0976 -0.15625,-0.23437 z m 0,0"
         id="path488"
         inkscape:connector-curvature="0" />
    </g>
    <path
       style="fill:#000000;fill-opacity:1;fill-rule:nonzero;stroke:none"
       d="m 82.824219,138.75 v -8.04688 h 5.820312 v 0.9375 h -4.765625 v 2.48047 h 4.453125 v 0.9375 h -4.453125 v 2.73438 h 4.941406 V 138.75 Z m 0,0"
       id="path492"
       inkscape:connector-curvature="0" />
    <path
       style="fill:#000000;fill-opacity:1;fill-rule:nonzero;stroke:none"
       d="m 90.171875,138.75 v -5.83984 h 0.898437 V 133.75 c 0.414063,-0.63281 1.035157,-0.95703 1.855469,-0.95703 0.351563,0 0.667969,0.0664 0.957031,0.19531 0.296876,0.11719 0.515626,0.28516 0.664063,0.48828 0.140625,0.19531 0.242187,0.4375 0.3125,0.72266 0.03906,0.18359 0.05859,0.5039 0.05859,0.95703 V 138.75 h -0.996094 v -3.55469 c 0,-0.39844 -0.03906,-0.70312 -0.117187,-0.89844 -0.07813,-0.19531 -0.214844,-0.35156 -0.410157,-0.46875 -0.195312,-0.125 -0.425781,-0.19531 -0.683593,-0.19531 -0.421876,0 -0.78125,0.13672 -1.09375,0.41016 -0.304688,0.26172 -0.449219,0.76953 -0.449219,1.52344 V 138.75 Z m 0,0"
       id="path494"
       inkscape:connector-curvature="0" />
    <path
       style="fill:#000000;fill-opacity:1;fill-rule:nonzero;stroke:none"
       d="m 100.23438,136.62109 0.97656,0.11719 c -0.10547,0.67969 -0.37891,1.20703 -0.82031,1.58203 -0.441411,0.38281 -0.98438,0.56641 -1.621099,0.56641 -0.792969,0 -1.433593,-0.25781 -1.914062,-0.78125 -0.480469,-0.51953 -0.722657,-1.26953 -0.722657,-2.2461 0,-0.63281 0.105469,-1.1914 0.3125,-1.66015 0.207032,-0.46875 0.519532,-0.82031 0.9375,-1.05469 0.429688,-0.23437 0.898438,-0.35156 1.40625,-0.35156 0.625,0 1.140626,0.16797 1.542968,0.48828 0.40235,0.3125 0.66406,0.76172 0.78125,1.34766 l -0.95703,0.15625 c -0.0898,-0.39063 -0.253906,-0.6836 -0.488281,-0.87891 -0.234375,-0.20313 -0.515625,-0.3125 -0.839844,-0.3125 -0.507813,0 -0.917969,0.1875 -1.230469,0.54687 -0.300781,0.35157 -0.449218,0.91407 -0.449218,1.67969 0,0.79688 0.148437,1.36719 0.449218,1.71875 0.300782,0.35156 0.691406,0.52735 1.171875,0.52735 0.390625,0 0.714844,-0.11719 0.976563,-0.35157 0.261716,-0.23437 0.421876,-0.59765 0.488286,-1.09375 z m 0,0"
       id="path496"
       inkscape:connector-curvature="0" />
    <path
       style="fill:#000000;fill-opacity:1;fill-rule:nonzero;stroke:none"
       d="m 101.67969,135.83984 c 0,-1.07812 0.30078,-1.8789 0.89844,-2.40234 0.50781,-0.42969 1.12109,-0.64453 1.83593,-0.64453 0.8086,0 1.46485,0.26172 1.97266,0.78125 0.50781,0.52344 0.76172,1.24609 0.76172,2.16797 0,0.75781 -0.11719,1.34765 -0.35156,1.77734 -0.22266,0.42969 -0.54688,0.76953 -0.97657,1.01563 -0.42968,0.23437 -0.89843,0.35156 -1.40625,0.35156 -0.82031,0 -1.48437,-0.25781 -1.99218,-0.78125 -0.4961,-0.53125 -0.74219,-1.28906 -0.74219,-2.26563 z m 1.01562,0 c 0,0.74219 0.16407,1.30469 0.48828,1.67969 0.32422,0.36719 0.73438,0.54688 1.23047,0.54688 0.4961,0 0.90625,-0.17969 1.23047,-0.54688 0.32422,-0.375 0.48828,-0.94922 0.48828,-1.71875 0,-0.71484 -0.16406,-1.26172 -0.48828,-1.64062 -0.32422,-0.375 -0.73437,-0.56641 -1.23047,-0.56641 -0.49609,0 -0.90625,0.19141 -1.23047,0.56641 -0.32421,0.36718 -0.48828,0.92578 -0.48828,1.67968 z m 0,0"
       id="path498"
       inkscape:connector-curvature="0" />
    <path
       style="fill:#000000;fill-opacity:1;fill-rule:nonzero;stroke:none"
       d="m 112.09766,138.75 v -0.74219 c -0.37891,0.58594 -0.92578,0.87891 -1.64063,0.87891 -0.45703,0 -0.8789,-0.13281 -1.26953,-0.39063 -0.39062,-0.25781 -0.69922,-0.61328 -0.91797,-1.07422 -0.21094,-0.45312 -0.3125,-0.98046 -0.3125,-1.58203 0,-0.58593 0.0977,-1.11328 0.29297,-1.58203 0.19531,-0.47656 0.48047,-0.84375 0.85938,-1.09375 0.39062,-0.24219 0.82421,-0.37109 1.30859,-0.37109 0.35156,0 0.66406,0.0742 0.9375,0.21484 0.27344,0.14844 0.49219,0.34375 0.66406,0.58594 v -2.89063 h 0.9961 V 138.75 Z m -3.125,-2.91016 c 0,0.74219 0.15625,1.30469 0.46875,1.67969 0.3125,0.36719 0.68359,0.54688 1.11328,0.54688 0.42969,0 0.79297,-0.17579 1.09375,-0.52735 0.3125,-0.35156 0.46875,-0.89062 0.46875,-1.62109 0,-0.79297 -0.15625,-1.37891 -0.46875,-1.75781 -0.3125,-0.375 -0.69141,-0.56641 -1.13281,-0.56641 -0.44532,0 -0.81641,0.1875 -1.11329,0.54687 -0.28906,0.36719 -0.42968,0.9336 -0.42968,1.69922 z m 0,0"
       id="path500"
       inkscape:connector-curvature="0" />
    <path
       style="fill:#000000;fill-opacity:1;fill-rule:nonzero;stroke:none"
       d="m 118.55078,136.875 1.03516,0.11719 c -0.17188,0.60156 -0.47656,1.07031 -0.91797,1.40625 -0.42969,0.32812 -0.98438,0.48828 -1.66016,0.48828 -0.84765,0 -1.52343,-0.25781 -2.03125,-0.78125 -0.49609,-0.53125 -0.74218,-1.27344 -0.74218,-2.22656 0,-0.97657 0.2539,-1.73047 0.76171,-2.26563 0.50782,-0.54687 1.16407,-0.82031 1.97266,-0.82031 0.78125,0 1.41016,0.26953 1.89453,0.80078 0.49219,0.52344 0.74219,1.26562 0.74219,2.22656 0,0.0703 0,0.15625 0,0.27344 H 115.25 c 0.0391,0.64062 0.21875,1.12891 0.54688,1.46484 0.32421,0.33985 0.73437,0.50782 1.23046,0.50782 0.36329,0 0.66797,-0.0898 0.91797,-0.27344 0.25782,-0.19531 0.46094,-0.4961 0.60547,-0.91797 z m -3.24219,-1.60156 h 3.26172 c -0.0391,-0.49219 -0.16406,-0.86328 -0.37109,-1.11328 -0.3125,-0.375 -0.72266,-0.56641 -1.23047,-0.56641 -0.45703,0 -0.83984,0.15625 -1.15234,0.46875 -0.30078,0.30469 -0.46875,0.70312 -0.50782,1.21094 z m 0,0"
       id="path502"
       inkscape:connector-curvature="0" />
    <path
       style="fill:#000000;fill-opacity:1;fill-rule:nonzero;stroke:none"
       d="m 120.80469,138.75 v -5.83984 h 0.89844 v 0.89843 c 0.21875,-0.41406 0.42968,-0.6875 0.625,-0.82031 0.19531,-0.12891 0.41015,-0.19531 0.64453,-0.19531 0.32031,0 0.66406,0.10547 1.01562,0.3125 l -0.35156,0.91797 c -0.23438,-0.14063 -0.48047,-0.21485 -0.72266,-0.21485 -0.21093,0 -0.40625,0.0664 -0.58593,0.19532 -0.17188,0.13281 -0.29297,0.3125 -0.3711,0.54687 -0.10937,0.35156 -0.15625,0.73828 -0.15625,1.15234 V 138.75 Z m 0,0"
       id="path504"
       inkscape:connector-curvature="0" />
    <path
       style="fill:none;stroke:#000000;stroke-width:1;stroke-linecap:round;stroke-linejoin:round;stroke-miterlimit:10;stroke-opacity:1"
       d="m 537.95625,475.64375 c 3.125,3.12187 3.125,8.1875 0,11.3125 -3.125,3.125 -8.19063,3.125 -11.3125,0 -3.125,-3.125 -3.125,-8.19063 0,-11.3125 3.12187,-3.125 8.1875,-3.125 11.3125,0"
       transform="matrix(1.25,0,0,1.25,-562.5,-228.75)"
       id="path520"
       inkscape:connector-curvature="0" />
    <path
       style="fill:#000000;fill-opacity:1;fill-rule:nonzero;stroke:none"
       d="m 106.17188,373.51953 v -0.74219 h -2.92969 v -2.92968 H 102.5 v 2.92968 h -2.929688 v 0.74219 H 102.5 v 2.94922 h 0.74219 v -2.94922 z m 0,0"
       id="path522"
       inkscape:connector-curvature="0" />
    <path
       style="fill:none;stroke:#000000;stroke-width:1;stroke-linecap:round;stroke-linejoin:round;stroke-miterlimit:10;stroke-opacity:1"
       d="m 450.6,468.2 h 62.2 v 26.2 h -62.2 z m 0,0"
       transform="matrix(1.25,0,0,1.25,-562.5,-228.75)"
       id="path524"
       inkscape:connector-curvature="0" />
    <path
       style="fill:#000000;fill-opacity:1;fill-rule:nonzero;stroke:none"
       d="m 16.09375,370.00781 v -8.04687 h 3.046875 c 0.535156,0 0.945313,0.0273 1.230469,0.0781 0.390625,0.0664 0.714844,0.19141 0.976562,0.3711 0.273438,0.18359 0.488282,0.44531 0.644532,0.78125 0.167968,0.32812 0.253906,0.6914 0.253906,1.09375 0,0.6914 -0.222656,1.26953 -0.664063,1.73828 -0.429687,0.46875 -1.210937,0.70312 -2.34375,0.70312 h -2.070312 v 3.28125 z m 1.074219,-4.21875 h 2.089843 c 0.675782,0 1.160157,-0.1289 1.445313,-0.39062 0.300781,-0.25782 0.449219,-0.61719 0.449219,-1.07422 0,-0.33594 -0.08594,-0.625 -0.253906,-0.85938 -0.167969,-0.24609 -0.398438,-0.41015 -0.683594,-0.48828 -0.167969,-0.0508 -0.5,-0.0781 -0.996094,-0.0781 h -2.050781 z m 0,0"
       id="path526"
       inkscape:connector-curvature="0" />
    <path
       style="fill:#000000;fill-opacity:1;fill-rule:nonzero;stroke:none"
       d="m 23.109375,367.09766 c 0,-1.07813 0.296875,-1.87891 0.898437,-2.40235 0.507813,-0.42969 1.117188,-0.64453 1.835938,-0.64453 0.804688,0 1.464844,0.26172 1.972656,0.78125 0.507813,0.52344 0.761719,1.24609 0.761719,2.16797 0,0.75781 -0.117187,1.34766 -0.351563,1.77734 -0.222656,0.42969 -0.546874,0.76953 -0.976562,1.01563 -0.429688,0.23437 -0.898438,0.35156 -1.40625,0.35156 -0.820312,0 -1.484375,-0.25781 -1.992188,-0.78125 -0.496093,-0.53125 -0.742187,-1.28906 -0.742187,-2.26562 z m 1.015625,0 c 0,0.74218 0.160156,1.30468 0.488281,1.67968 0.324219,0.36719 0.734375,0.54688 1.230469,0.54688 0.492188,0 0.902344,-0.17969 1.230469,-0.54688 0.324219,-0.375 0.488281,-0.94922 0.488281,-1.71875 0,-0.71484 -0.164062,-1.26172 -0.488281,-1.64062 -0.328125,-0.375 -0.738281,-0.56641 -1.230469,-0.56641 -0.496094,0 -0.90625,0.19141 -1.230469,0.56641 -0.328125,0.36719 -0.488281,0.92578 -0.488281,1.67969 z m 0,0"
       id="path528"
       inkscape:connector-curvature="0" />
    <path
       style="fill:#000000;fill-opacity:1;fill-rule:nonzero;stroke:none"
       d="m 29.347656,368.26953 0.976563,-0.15625 c 0.05078,0.39063 0.199219,0.69141 0.449219,0.89844 0.257812,0.21094 0.609374,0.3125 1.054687,0.3125 0.453125,0 0.792969,-0.0899 1.015625,-0.27344 0.21875,-0.17969 0.332031,-0.39453 0.332031,-0.64453 0,-0.23438 -0.09766,-0.41016 -0.292969,-0.52734 -0.144531,-0.0899 -0.484374,-0.20704 -1.015624,-0.35157 -0.730469,-0.17968 -1.238282,-0.33593 -1.523438,-0.46875 -0.273438,-0.1289 -0.484375,-0.3125 -0.625,-0.54687 -0.144531,-0.23438 -0.214844,-0.49219 -0.214844,-0.78125 0,-0.25781 0.05859,-0.5 0.175782,-0.72266 0.117187,-0.21875 0.277343,-0.41015 0.488281,-0.5664 0.15625,-0.10157 0.363281,-0.19532 0.625,-0.27344 0.273437,-0.0781 0.558593,-0.11719 0.859375,-0.11719 0.453125,0 0.851562,0.0664 1.191406,0.19531 0.351562,0.13282 0.609375,0.3086 0.78125,0.52735 0.167969,0.22265 0.285156,0.52343 0.351562,0.89843 L 33,365.80859 c -0.03906,-0.29687 -0.171875,-0.53125 -0.390625,-0.70312 -0.210937,-0.16797 -0.503906,-0.25391 -0.878906,-0.25391 -0.457031,0 -0.78125,0.0781 -0.976563,0.23438 -0.195312,0.14453 -0.292968,0.32031 -0.292968,0.52734 0,0.13281 0.03906,0.24219 0.117187,0.33203 0.07813,0.11719 0.207031,0.21094 0.390625,0.27344 0.08984,0.0391 0.375,0.125 0.859375,0.25391 0.703125,0.18359 1.191406,0.33203 1.464844,0.44921 0.285156,0.11719 0.507812,0.29297 0.664062,0.52735 0.15625,0.22265 0.234375,0.5039 0.234375,0.83984 0,0.33985 -0.09766,0.65235 -0.292968,0.9375 -0.195313,0.28906 -0.476563,0.51563 -0.839844,0.6836 -0.351563,0.15625 -0.761719,0.23437 -1.230469,0.23437 -0.757813,0 -1.335937,-0.15625 -1.738281,-0.46875 -0.390625,-0.32422 -0.640625,-0.79297 -0.742188,-1.40625 z m 0,0"
       id="path530"
       inkscape:connector-curvature="0" />
    <path
       style="fill:#000000;fill-opacity:1;fill-rule:nonzero;stroke:none"
       d="m 35.363281,363.09375 v -1.13281 h 0.996094 v 1.13281 z m 0,6.91406 v -5.83984 h 0.996094 v 5.83984 z m 0,0"
       id="path532"
       inkscape:connector-curvature="0" />
    <path
       style="fill:#000000;fill-opacity:1;fill-rule:nonzero;stroke:none"
       d="m 40.03125,369.12891 0.136719,0.85937 c -0.289063,0.0625 -0.535157,0.0977 -0.742188,0.0977 -0.367187,0 -0.644531,-0.0586 -0.839843,-0.17578 -0.195313,-0.11719 -0.339844,-0.26563 -0.429688,-0.44922 -0.07813,-0.17969 -0.117188,-0.56641 -0.117188,-1.15235 v -3.35937 h -0.722656 v -0.78125 h 0.722656 v -1.44531 l 0.996094,-0.58594 v 2.03125 h 0.996094 v 0.78125 h -0.996094 v 3.39844 c 0,0.28906 0.01172,0.46875 0.03906,0.54687 0.03906,0.0781 0.09766,0.14453 0.175781,0.19531 0.07813,0.0547 0.1875,0.0781 0.332031,0.0781 0.117188,0 0.265625,-0.0117 0.449219,-0.0391 z m 0,0"
       id="path534"
       inkscape:connector-curvature="0" />
    <path
       style="fill:#000000;fill-opacity:1;fill-rule:nonzero;stroke:none"
       d="m 40.988281,363.09375 v -1.13281 h 0.996094 v 1.13281 z m 0,6.91406 v -5.83984 h 0.996094 v 5.83984 z m 0,0"
       id="path536"
       inkscape:connector-curvature="0" />
    <path
       style="fill:#000000;fill-opacity:1;fill-rule:nonzero;stroke:none"
       d="m 43.117188,367.09766 c 0,-1.07813 0.296874,-1.87891 0.898437,-2.40235 0.507813,-0.42969 1.117187,-0.64453 1.835937,-0.64453 0.804688,0 1.464844,0.26172 1.972657,0.78125 0.507812,0.52344 0.761719,1.24609 0.761719,2.16797 0,0.75781 -0.117188,1.34766 -0.351563,1.77734 -0.222656,0.42969 -0.546875,0.76953 -0.976563,1.01563 -0.429687,0.23437 -0.898437,0.35156 -1.40625,0.35156 -0.820312,0 -1.484374,-0.25781 -1.992187,-0.78125 -0.496094,-0.53125 -0.742187,-1.28906 -0.742187,-2.26562 z m 1.015624,0 c 0,0.74218 0.160157,1.30468 0.488282,1.67968 0.324218,0.36719 0.734375,0.54688 1.230468,0.54688 0.492188,0 0.902344,-0.17969 1.230469,-0.54688 0.324219,-0.375 0.488281,-0.94922 0.488281,-1.71875 0,-0.71484 -0.164062,-1.26172 -0.488281,-1.64062 -0.328125,-0.375 -0.738281,-0.56641 -1.230469,-0.56641 -0.496093,0 -0.90625,0.19141 -1.230468,0.56641 -0.328125,0.36719 -0.488282,0.92578 -0.488282,1.67969 z m 0,0"
       id="path538"
       inkscape:connector-curvature="0" />
    <path
       style="fill:#000000;fill-opacity:1;fill-rule:nonzero;stroke:none"
       d="m 49.746094,370.00781 v -5.83984 h 0.898437 v 0.83984 c 0.414063,-0.63672 1.035157,-0.95703 1.855469,-0.95703 0.351562,0 0.667969,0.0664 0.957031,0.19531 0.296875,0.11719 0.515625,0.28125 0.664063,0.48828 0.140625,0.19532 0.242187,0.4375 0.3125,0.72266 0.03906,0.18359 0.05859,0.50391 0.05859,0.95703 v 3.59375 H 53.49609 v -3.55469 c 0,-0.40234 -0.03906,-0.70312 -0.117188,-0.89843 -0.07813,-0.19532 -0.214844,-0.35157 -0.410156,-0.46875 -0.195312,-0.12891 -0.425781,-0.19532 -0.683594,-0.19532 -0.421875,0 -0.78125,0.13672 -1.09375,0.41016 -0.304687,0.26172 -0.449218,0.76953 -0.449218,1.52344 v 3.18359 z m 0,0"
       id="path540"
       inkscape:connector-curvature="0" />
    <path
       style="fill:#000000;fill-opacity:1;fill-rule:nonzero;stroke:none"
       d="m 59.8125,369.28516 c -0.367188,0.3125 -0.71875,0.53515 -1.054688,0.66406 -0.34375,0.125 -0.703124,0.19531 -1.09375,0.19531 -0.640624,0 -1.132812,-0.15625 -1.484374,-0.46875 -0.34375,-0.3125 -0.507813,-0.71484 -0.507813,-1.21094 0,-0.28515 0.0625,-0.54687 0.195313,-0.78125 0.125,-0.23437 0.296874,-0.42187 0.507812,-0.5664 0.203125,-0.14063 0.4375,-0.25391 0.703125,-0.33203 0.195313,-0.0391 0.488281,-0.082 0.878906,-0.13672 0.804688,-0.0899 1.394531,-0.20703 1.777344,-0.35157 0,-0.1289 0,-0.21484 0,-0.2539 0,-0.40235 -0.09375,-0.6836 -0.273437,-0.83985 -0.265626,-0.23437 -0.640626,-0.35156 -1.132813,-0.35156 -0.46875,0 -0.816406,0.0859 -1.035156,0.25391 -0.226563,0.15625 -0.386719,0.44531 -0.488281,0.85937 l -0.957032,-0.11718 c 0.07813,-0.41407 0.214844,-0.7461 0.410156,-0.9961 0.203126,-0.25781 0.496094,-0.45312 0.878907,-0.58594 0.390625,-0.14062 0.828125,-0.21484 1.328125,-0.21484 0.507812,0 0.90625,0.0586 1.210937,0.17578 0.3125,0.11719 0.535157,0.26953 0.683594,0.44922 0.15625,0.17188 0.257813,0.39063 0.3125,0.66406 0.03906,0.17188 0.05859,0.46875 0.05859,0.89844 v 1.32813 c 0,0.91406 0.01953,1.49218 0.05859,1.73828 0.03906,0.25 0.121094,0.48437 0.253907,0.70312 h -1.035157 c -0.109374,-0.20703 -0.171874,-0.44922 -0.195312,-0.72265 z m -0.07813,-2.20704 c -0.367187,0.14454 -0.910156,0.26954 -1.621094,0.3711 -0.40625,0.0664 -0.695312,0.13672 -0.859375,0.21484 -0.171875,0.0664 -0.304687,0.17188 -0.390625,0.3125 -0.09375,0.14453 -0.136719,0.30078 -0.136719,0.46875 0,0.26172 0.09766,0.48438 0.292969,0.66406 0.195313,0.17188 0.488281,0.25391 0.878907,0.25391 0.375,0 0.710937,-0.082 1.015624,-0.25391 0.296876,-0.16796 0.515626,-0.39453 0.664063,-0.68359 0.101563,-0.21875 0.15625,-0.54687 0.15625,-0.97656 z m 0,0"
       id="path542"
       inkscape:connector-curvature="0" />
    <path
       style="fill:#000000;fill-opacity:1;fill-rule:nonzero;stroke:none"
       d="m 62.242188,370.00781 v -8.04687 h 0.976562 v 8.04687 z m 0,0"
       id="path544"
       inkscape:connector-curvature="0" />
    <path
       style="fill:#000000;fill-opacity:1;fill-rule:nonzero;stroke:none"
       d="m 21.519531,381 1.035157,0.11719 c -0.171876,0.60156 -0.480469,1.07031 -0.917969,1.40625 -0.429688,0.32812 -0.988281,0.48828 -1.660157,0.48828 -0.851562,0 -1.523437,-0.25781 -2.03125,-0.78125 -0.5,-0.53125 -0.742187,-1.27344 -0.742187,-2.22656 0,-0.97657 0.253906,-1.73047 0.761719,-2.26563 0.507812,-0.54687 1.160156,-0.82031 1.972656,-0.82031 0.78125,0 1.410156,0.26953 1.894531,0.80078 0.492188,0.52344 0.742188,1.26562 0.742188,2.22656 0,0.0703 0,0.15625 0,0.27344 H 18.21875 c 0.03906,0.64062 0.21875,1.12891 0.546875,1.46484 0.320313,0.33985 0.730469,0.50782 1.230469,0.50782 0.359375,0 0.667968,-0.0899 0.917968,-0.27344 0.257813,-0.19531 0.457032,-0.4961 0.605469,-0.91797 z m -3.242187,-1.60156 h 3.261718 c -0.03906,-0.49219 -0.167968,-0.86328 -0.371093,-1.11328 -0.3125,-0.375 -0.722657,-0.56641 -1.230469,-0.56641 -0.460938,0 -0.839844,0.15625 -1.152344,0.46875 -0.304687,0.30469 -0.46875,0.70312 -0.507812,1.21094 z m 0,0"
       id="path546"
       inkscape:connector-curvature="0" />
    <path
       style="fill:#000000;fill-opacity:1;fill-rule:nonzero;stroke:none"
       d="m 23.792969,382.875 v -5.83984 h 0.898437 v 0.83984 c 0.414063,-0.63281 1.035156,-0.95703 1.855469,-0.95703 0.351563,0 0.667969,0.0664 0.957031,0.19531 0.296875,0.11719 0.515625,0.28516 0.664063,0.48828 0.140625,0.19531 0.242187,0.4375 0.3125,0.72266 0.03906,0.18359 0.05859,0.5039 0.05859,0.95703 v 3.59375 h -0.996093 v -3.55469 c 0,-0.39844 -0.03906,-0.70312 -0.117188,-0.89844 -0.07813,-0.19531 -0.214843,-0.35156 -0.410156,-0.46875 -0.195313,-0.125 -0.425781,-0.19531 -0.683594,-0.19531 -0.421875,0 -0.78125,0.13672 -1.09375,0.41016 -0.304687,0.26172 -0.449219,0.76953 -0.449219,1.52344 v 3.18359 z m 0,0"
       id="path548"
       inkscape:connector-curvature="0" />
    <path
       style="fill:#000000;fill-opacity:1;fill-rule:nonzero;stroke:none"
       d="m 33.859375,380.74609 0.976563,0.11719 c -0.109376,0.67969 -0.382813,1.20703 -0.820313,1.58203 -0.445313,0.38281 -0.988281,0.56641 -1.621094,0.56641 -0.796875,0 -1.4375,-0.25781 -1.914062,-0.78125 -0.484375,-0.51953 -0.722657,-1.26953 -0.722657,-2.2461 0,-0.63281 0.101563,-1.1914 0.3125,-1.66015 0.203126,-0.46875 0.515626,-0.82031 0.9375,-1.05469 0.429688,-0.23437 0.898438,-0.35156 1.40625,-0.35156 0.625,0 1.136719,0.16797 1.542969,0.48828 0.398438,0.3125 0.664063,0.76172 0.78125,1.34766 l -0.957031,0.15625 c -0.09375,-0.39063 -0.253906,-0.6836 -0.488281,-0.87891 -0.234375,-0.20313 -0.519531,-0.3125 -0.839844,-0.3125 -0.507813,0 -0.917969,0.1875 -1.230469,0.54687 -0.304687,0.35157 -0.449218,0.91407 -0.449218,1.67969 0,0.79688 0.144531,1.36719 0.449218,1.71875 0.296875,0.35156 0.6875,0.52735 1.171875,0.52735 0.390625,0 0.710938,-0.11719 0.976563,-0.35157 0.257812,-0.23437 0.417968,-0.59765 0.488281,-1.09375 z m 0,0"
       id="path550"
       inkscape:connector-curvature="0" />
    <path
       style="fill:#000000;fill-opacity:1;fill-rule:nonzero;stroke:none"
       d="m 35.304688,379.96484 c 0,-1.07812 0.296874,-1.8789 0.898437,-2.40234 0.507813,-0.42969 1.117187,-0.64453 1.835937,-0.64453 0.804688,0 1.464844,0.26172 1.972657,0.78125 0.507812,0.52344 0.761719,1.24609 0.761719,2.16797 0,0.75781 -0.117188,1.34765 -0.351563,1.77734 -0.226563,0.42969 -0.546875,0.76953 -0.976563,1.01563 -0.429687,0.23437 -0.898437,0.35156 -1.40625,0.35156 -0.820312,0 -1.484374,-0.25781 -1.992187,-0.78125 -0.5,-0.53125 -0.742187,-1.28906 -0.742187,-2.26563 z m 1.015624,0 c 0,0.74219 0.160157,1.30469 0.488282,1.67969 0.320312,0.36719 0.730468,0.54688 1.230468,0.54688 0.492188,0 0.902344,-0.17969 1.230469,-0.54688 0.320313,-0.375 0.488281,-0.94922 0.488281,-1.71875 0,-0.71484 -0.167968,-1.26172 -0.488281,-1.64062 -0.328125,-0.375 -0.738281,-0.56641 -1.230469,-0.56641 -0.5,0 -0.910156,0.19141 -1.230468,0.56641 -0.328125,0.36718 -0.488282,0.92578 -0.488282,1.67968 z m 0,0"
       id="path552"
       inkscape:connector-curvature="0" />
    <path
       style="fill:#000000;fill-opacity:1;fill-rule:nonzero;stroke:none"
       d="m 45.71875,382.875 v -0.74219 c -0.378906,0.58594 -0.925781,0.87891 -1.640625,0.87891 -0.457031,0 -0.878906,-0.13281 -1.269531,-0.39063 -0.390625,-0.25781 -0.695313,-0.61328 -0.917969,-1.07422 -0.207031,-0.45312 -0.3125,-0.98046 -0.3125,-1.58203 0,-0.58593 0.09766,-1.11328 0.292969,-1.58203 0.195312,-0.47656 0.480468,-0.84375 0.859375,-1.09375 0.390625,-0.24219 0.828125,-0.37109 1.308593,-0.37109 0.351563,0 0.664063,0.0742 0.9375,0.21484 0.273438,0.14844 0.496094,0.34375 0.664063,0.58594 v -2.89063 h 0.996094 v 8.04688 z m -3.125,-2.91016 c 0,0.74219 0.15625,1.30469 0.46875,1.67969 0.3125,0.36719 0.683594,0.54688 1.113281,0.54688 0.429688,0 0.792969,-0.17579 1.09375,-0.52735 0.3125,-0.35156 0.46875,-0.89062 0.46875,-1.62109 0,-0.79297 -0.15625,-1.37891 -0.46875,-1.75781 -0.3125,-0.375 -0.691406,-0.56641 -1.132812,-0.56641 -0.441407,0 -0.8125,0.1875 -1.113281,0.54687 -0.285157,0.36719 -0.429688,0.9336 -0.429688,1.69922 z m 0,0"
       id="path554"
       inkscape:connector-curvature="0" />
    <path
       style="fill:#000000;fill-opacity:1;fill-rule:nonzero;stroke:none"
       d="m 48.1875,375.96094 v -1.13282 h 0.996094 v 1.13282 z m 0,6.91406 v -5.83984 h 0.996094 v 5.83984 z m 0,0"
       id="path556"
       inkscape:connector-curvature="0" />
    <path
       style="fill:#000000;fill-opacity:1;fill-rule:nonzero;stroke:none"
       d="m 50.6875,382.875 v -5.83984 h 0.898438 v 0.83984 c 0.417968,-0.63281 1.035156,-0.95703 1.855468,-0.95703 0.351563,0 0.671875,0.0664 0.957032,0.19531 0.300781,0.11719 0.519531,0.28516 0.664062,0.48828 0.144531,0.19531 0.246094,0.4375 0.3125,0.72266 0.03906,0.18359 0.05859,0.5039 0.05859,0.95703 V 382.875 H 54.4375 v -3.55469 c 0,-0.39844 -0.03906,-0.70312 -0.117188,-0.89844 -0.07812,-0.19531 -0.214843,-0.35156 -0.410156,-0.46875 -0.195312,-0.125 -0.421875,-0.19531 -0.683594,-0.19531 -0.417968,0 -0.78125,0.13672 -1.09375,0.41016 -0.300781,0.26172 -0.449218,0.76953 -0.449218,1.52344 v 3.18359 z m 0,0"
       id="path558"
       inkscape:connector-curvature="0" />
    <path
       style="fill:#000000;fill-opacity:1;fill-rule:nonzero;stroke:none"
       d="M 56.769531,383.36328 57.726562,383.5 c 0.03906,0.29687 0.148438,0.51172 0.332032,0.64453 0.246094,0.17969 0.585937,0.27344 1.015625,0.27344 0.453125,0 0.804687,-0.0937 1.054687,-0.27344 0.246094,-0.18359 0.414063,-0.44141 0.507813,-0.76172 0.05078,-0.21094 0.07031,-0.6289 0.05859,-1.26953 -0.429687,0.50781 -0.964843,0.76172 -1.601562,0.76172 -0.808594,0 -1.433594,-0.28125 -1.875,-0.85938 -0.429688,-0.58593 -0.644531,-1.28125 -0.644531,-2.08984 0,-0.55859 0.09766,-1.07422 0.292969,-1.54297 0.207031,-0.46875 0.5,-0.82422 0.878906,-1.07422 0.375,-0.25781 0.824218,-0.39062 1.347656,-0.39062 0.6875,0 1.253906,0.27344 1.699219,0.82031 v -0.70312 h 0.917969 v 5.03906 c 0,0.91015 -0.09766,1.55078 -0.292969,1.93359 -0.183594,0.375 -0.476563,0.67188 -0.878907,0.89844 -0.390624,0.21875 -0.878906,0.33203 -1.464843,0.33203 -0.703125,0 -1.269531,-0.15625 -1.699219,-0.46875 -0.417969,-0.3125 -0.621094,-0.78125 -0.605469,-1.40625 z m 0.820313,-3.51562 c 0,0.76953 0.148437,1.32812 0.449218,1.67968 0.296876,0.35157 0.675782,0.52735 1.132813,0.52735 0.453125,0 0.839844,-0.17578 1.152344,-0.52735 0.3125,-0.35156 0.46875,-0.89843 0.46875,-1.64062 0,-0.71485 -0.164063,-1.25391 -0.488281,-1.6211 -0.3125,-0.35937 -0.691407,-0.54687 -1.132813,-0.54687 -0.445313,0 -0.820313,0.1875 -1.132813,0.54687 -0.300781,0.35157 -0.449218,0.87891 -0.449218,1.58204 z m 0,0"
       id="path560"
       inkscape:connector-curvature="0" />
    <path
       style="fill:none;stroke:#000000;stroke-width:1;stroke-linecap:round;stroke-linejoin:round;stroke-miterlimit:10;stroke-opacity:1"
       d="m 512.8,481.3 h 5.6"
       transform="matrix(1.25,0,0,1.25,-562.5,-228.75)"
       id="path562"
       inkscape:connector-curvature="0" />
    <path
       style="fill:none;stroke:#000000;stroke-width:1;stroke-linecap:butt;stroke-linejoin:miter;stroke-miterlimit:10;stroke-opacity:1"
       d="m 522.4,481.3 h -4 m 0,-1.5 4,1.5 -4,1.5"
       transform="matrix(1.25,0,0,1.25,-562.5,-228.75)"
       id="path564"
       inkscape:connector-curvature="0" />
  </g>
</svg>
